<svg id="bd9e46dd-3b74-467b-936c-b1857a9371b4" data-name="Layer 1" xmlns="http://www.w3.org/2000/svg" viewBox="0 0 309.55 93.33"><circle id="a039e999-8255-4c35-b4c5-867045ce4381" data-name="back" cx="46.67" cy="46.67" r="46.67" fill="#fff"/><g id="aa5046ab-455f-42f5-ad34-942dff1a0bde" data-name="initial"><path d="M196.1,280.27l.32-1.17a42.38,42.38,0,0,0,6.43-1c-.43,1.22-.89,2.8-1.38,4.76l-2,7.3,2.38.13a7.61,7.61,0,0,0,3.62-.83,9.47,9.47,0,0,0,5.05-8.11,5.07,5.07,0,0,0-1.88-4.15c-1.25-1-3.17-1.53-5.74-1.53a18.55,18.55,0,0,0-8.63,2.19,17.21,17.21,0,0,0-6.51,5.6,12,12,0,0,0-2.29,6.73,6.43,6.43,0,0,0,.59,2.84,7.16,7.16,0,0,0,2.13,2.37c.85.62,1.27,1.23,1.27,1.82a1.26,1.26,0,0,1-.42,1,1.37,1.37,0,0,1-1,.39q-1.53,0-3-2.1a9.29,9.29,0,0,1-1.43-5.32,15.44,15.44,0,0,1,4.51-10.73q5.93-6.39,15.87-6.38a16.77,16.77,0,0,1,6.21,1,7.94,7.94,0,0,1,3.63,2.7,6.28,6.28,0,0,1,1.21,3.71,8.78,8.78,0,0,1-1.69,5,11.84,11.84,0,0,1-5,3.95,17.49,17.49,0,0,1-7.32,1.51c-.42,0-1.06,0-1.94-.08l-2.09,8.07c-.34,1.36-.73,2.71-1.16,4a15,15,0,0,0,3.52.49,12.7,12.7,0,0,0,4.06-.73l-.31,1.46a13.69,13.69,0,0,1-3.42.54,38.81,38.81,0,0,1-3.94-.28,26.81,26.81,0,0,0-3.36-.26,23.22,23.22,0,0,0-5.16.59l.31-1.37a8.07,8.07,0,0,0,3.68-1.27c.94-.78,1.7-2.34,2.28-4.7l3.91-15.53a7.17,7.17,0,0,0,.26-1.53,1,1,0,0,0-.33-.74,1.17,1.17,0,0,0-.81-.32A4.59,4.59,0,0,0,196.1,280.27Z" transform="translate(-120.58 -234.18)"/><path d="M175.12,278.78l-3.49,13.77a14.6,14.6,0,0,0,2,.18,12.87,12.87,0,0,0,2.82-.39l-.26,1.28a14.14,14.14,0,0,1-2.69.36c-.67,0-1.67-.06-3-.18-1.16-.12-2.12-.18-2.87-.18a22.57,22.57,0,0,0-4.8.59l.39-1.45a10.71,10.71,0,0,0,3.71-1.43,7.41,7.41,0,0,0,2-3.91l3.63-14.5a24.27,24.27,0,0,0,.67-3.26.81.81,0,0,0-.32-.7,2.24,2.24,0,0,0-1.28-.21l.33-1.25a26.47,26.47,0,0,0,6.25-.95c-.2.65-.47,1.62-.8,2.9l-1.95,7.65a10.83,10.83,0,0,0,2.1.26,7.65,7.65,0,0,0,5.56-2.27,7.29,7.29,0,0,0,2.31-5.38,5,5,0,0,0-1.85-4,7.59,7.59,0,0,0-5-1.55,17.31,17.31,0,0,0-7.95,2,14.82,14.82,0,0,0-5.83,4.88,10.83,10.83,0,0,0-1.94,6.11,5.32,5.32,0,0,0,2,4.15,6.66,6.66,0,0,1,1.25,1.24,1.65,1.65,0,0,1,.23.83,1.29,1.29,0,0,1-.4.95,1.34,1.34,0,0,1-1,.4,3.05,3.05,0,0,1-2.5-1.63,9.29,9.29,0,0,1-1.41-5.24,13.57,13.57,0,0,1,2.21-7.44,16.49,16.49,0,0,1,6.67-5.71,20.72,20.72,0,0,1,9.43-2.25,15,15,0,0,1,7.6,1.74,5.59,5.59,0,0,1,3,5.13,8.32,8.32,0,0,1-2.73,5.94,13.25,13.25,0,0,1-7.53,3.52c.8,1.59,1.31,2.67,1.53,3.22.36.93.91,2.51,1.66,4.72q2.61,7.77,5.41,10.95a6,6,0,0,0,4.49,2.32,3,3,0,0,0,3.18-2.24,4.49,4.49,0,0,1,.78-1.75,1.59,1.59,0,0,1,1.12-.47,1.44,1.44,0,0,1,1,.44,1.5,1.5,0,0,1,.42,1.07,4,4,0,0,1-1.76,3.06,6.88,6.88,0,0,1-4.53,1.45,10.14,10.14,0,0,1-4.81-1.22,14.45,14.45,0,0,1-4.46-4,28.43,28.43,0,0,1-3.77-6.65c-.54-1.3-1.32-3.67-2.36-7.13-.62-2.11-1-3.37-1.16-3.79l-.64,0C175.63,278.73,175.41,278.75,175.12,278.78Z" transform="translate(-120.58 -234.18)"/><path d="M143.58,280.09l-2-27.08a67,67,0,0,1-2.41,12.76,32.54,32.54,0,0,1-4,9.15,14.38,14.38,0,0,1-4.57,4.54,9.45,9.45,0,0,1-4.63,1.31,3.41,3.41,0,0,1-2.12-.57,1.66,1.66,0,0,1-.75-1.37,1.57,1.57,0,0,1,.54-1.18,2,2,0,0,1,1.37-.5,8.57,8.57,0,0,1,1.74.26,7.05,7.05,0,0,0,1.71.27,4.4,4.4,0,0,0,2.46-.88,13.7,13.7,0,0,0,3.84-4.69,39,39,0,0,0,3.39-9.42A68.05,68.05,0,0,0,140,250.9a14.47,14.47,0,0,0-9.28,2.84,6.43,6.43,0,0,0-2.84,5.05,5.21,5.21,0,0,0,1.34,3,2.76,2.76,0,0,1,.72,1.51,1.49,1.49,0,0,1-.41,1.08,1.33,1.33,0,0,1-1,.43,2.12,2.12,0,0,1-1.73-1.11,6.06,6.06,0,0,1-1-3.52,9.17,9.17,0,0,1,1.92-5.49,12,12,0,0,1,5.33-4,21.81,21.81,0,0,1,8-1.4,14,14,0,0,0,3.94-.45c0,1.51-.07,2.32-.07,2.44s0,.5.07,1l1.46,19.15A117.74,117.74,0,0,1,158.36,254a28.88,28.88,0,0,1,7.18-6.57q-1.75,4.78-3.74,12.6l-3.09,12.07c-.17.67-.4,1.65-.68,2.94l-.61,2.69a15.34,15.34,0,0,0,3.5.45,13.65,13.65,0,0,0,2.74-.3l-.33,1.46a12.46,12.46,0,0,1-2,.23,28,28,0,0,1-3-.23,23.56,23.56,0,0,0-2.82-.2,10.59,10.59,0,0,0-3,.5,86.74,86.74,0,0,0,2.9-9.73l1.94-7.69a39.81,39.81,0,0,1,2.14-6.84,103.76,103.76,0,0,0-6.23,8.41q-3.37,4.92-7.56,12.48Z" transform="translate(-120.58 -234.18)"/></g><path id="b348ad8d-19cb-481f-8905-51f3578004ea" data-name="fix" d="M190.4,297.55a19.54,19.54,0,0,1-1.5-2.32,18.25,18.25,0,0,1-1.12-2.39.83.83,0,0,0-1-.56.81.81,0,0,0-.56,1,20.64,20.64,0,0,0,2.78,5.09.83.83,0,0,0,1.1.29A.8.8,0,0,0,190.4,297.55Z" transform="translate(-120.58 -234.18)" fill="#fff"/><path d="M226.06,276.8l.06-1.28a5.51,5.51,0,0,0,3-1,5,5,0,0,0,.64-2.35l.24-6.72.29-6.82c0-.42,0-.67,0-.76a7.82,7.82,0,0,0-.31-3.07,4.87,4.87,0,0,0-2.42-.81l-.83-.19c0-.31,0-.58,0-.79v-.59c.47,0,1,0,1.64,0l5.52.19.52,0,.87,0a6.43,6.43,0,0,1,.65,1c.46.92,1.08,2.27,1.84,4l.22.51,2.93,6.39.31.66.6,1.28c.19.42.41.86.64,1.35s.43.92.61,1.31a9.32,9.32,0,0,0,.51-1c.5-1.16,1-2.22,1.47-3.19q1.24-2.56,3.38-7.84c.22-.57.6-1.42,1.12-2.56s.81-1.74.86-1.8a1.08,1.08,0,0,1,.68-.15l.58,0c.65,0,1.44-.07,2.35-.09,1.32,0,2.38-.06,3.18-.13l1.35-.1a2.74,2.74,0,0,1,.45,0c0,.18,0,.31,0,.41l0,.57c0,.11,0,.28,0,.51a10.39,10.39,0,0,0-2.89.79c-.51.25-.77.57-.77.94v.29l.32,5.77q.06.8.31,7.86c0,1.06.12,2.4.25,4,0,.2,0,.36,0,.47,0,.3.07.5.19.58a34.06,34.06,0,0,0,3.39,1.1c0,.2,0,.35,0,.45,0,.26,0,.53,0,.79-.34,0-1.2-.07-2.57-.22a37.91,37.91,0,0,0-3.84-.21c-1.83,0-3.6.07-5.32.22l-.66.06,0-1.3a10.5,10.5,0,0,1,2.05-.51,1.69,1.69,0,0,0,1.15-.51,4.51,4.51,0,0,0,.25-2c0-.41,0-.78,0-1.09-.06-1.32-.1-3.16-.11-5.51l-.32-6.65c0-.95-.09-1.6-.14-2L245.62,268l-.51,1.09c-.29.62-.49,1-.59,1.27-1,2.32-1.64,4.1-2,5.34-.1.31-.26.72-.46,1.22l-1.44,0-1-2.88c-.31-.76-.82-1.9-1.55-3.44-.43-.89-.76-1.61-1-2.16l-.25-.51-.22-.47a.71.71,0,0,0-.06-.19l-2.81-6.06L232,257.53l-.15,8.92-.13,5.78a3.09,3.09,0,0,0,.54,2,4.67,4.67,0,0,0,2.31,1.05l.9.22v1.38c-.73,0-1.51-.07-2.34-.16a32.43,32.43,0,0,0-3.33-.14C229.49,276.63,228.25,276.69,226.06,276.8Z" transform="translate(-120.58 -234.18)" fill="#fff"/><path d="M277,263.07a7.41,7.41,0,0,1,1.8,2.69,7.76,7.76,0,0,1,.6,2.85,9.24,9.24,0,0,1-.77,4.08,7.83,7.83,0,0,1-3.16,3.45,9.24,9.24,0,0,1-4.6,1.11,9,9,0,0,1-5-1.32,8.14,8.14,0,0,1-2.92-3,8.86,8.86,0,0,1-.88-4.16,8.33,8.33,0,0,1,.41-2.54,7.29,7.29,0,0,1,1.15-2.22,7.92,7.92,0,0,1,1.59-1.58,9,9,0,0,1,2.54-1.29,10.66,10.66,0,0,1,3.09-.39A8.07,8.07,0,0,1,277,263.07Zm-10.31,6.52q.16,2.34.24,2.7a7.2,7.2,0,0,0,.78,2.17,3.1,3.1,0,0,0,1.19,1,4.08,4.08,0,0,0,2,.45,3.27,3.27,0,0,0,2.32-.88,5.19,5.19,0,0,0,1.35-2.75,20.82,20.82,0,0,0,.27-4c0-2.29-.38-3.91-1.13-4.86a3.87,3.87,0,0,0-5.39-.61,4.39,4.39,0,0,0-1.33,2.39A25,25,0,0,0,266.72,269.59Z" transform="translate(-120.58 -234.18)" fill="#fff"/><path d="M282.43,266.81a7.78,7.78,0,0,1,.87-2.13,9.62,9.62,0,0,1,2.25-2.42,7.4,7.4,0,0,1,2.16-1.15,7.63,7.63,0,0,1,2-.36,12.3,12.3,0,0,1,2.86.27,5.71,5.71,0,0,1,1.83.79,8.84,8.84,0,0,1,1.7,1.48,6.74,6.74,0,0,1,1.05,1.77,7.37,7.37,0,0,1,.44,2.47l-2.09,0c-.58,0-1.85-.06-3.81-.17-.73-.06-1.24-.09-1.51-.09l-2,0h-1.62a2.57,2.57,0,0,0,0,.45,9.39,9.39,0,0,0,.25,2.11,6.64,6.64,0,0,0,.73,2,5.31,5.31,0,0,0,1.22,1.44,4.8,4.8,0,0,0,1.5.87l1.09.36a13.11,13.11,0,0,0,1.94-.09,9.24,9.24,0,0,0,1.6-.48,10.21,10.21,0,0,0,1.67-1c.45.32.83.62,1.13.88a11,11,0,0,1-3.44,2.65,9.4,9.4,0,0,1-4,.82,9.57,9.57,0,0,1-2.44-.26,7.64,7.64,0,0,1-2.28-1,7.05,7.05,0,0,1-1.75-1.74,8.89,8.89,0,0,1-1.57-4.44A14.85,14.85,0,0,1,282.43,266.81Zm10.95-.8a5.61,5.61,0,0,0-.41-2,3.14,3.14,0,0,0-1.23-1.5,2.89,2.89,0,0,0-4,.57,4.82,4.82,0,0,0-1.15,3l4.3,0q.42,0,1.17-.06c.37,0,.62-.05.78-.05Z" transform="translate(-120.58 -234.18)" fill="#fff"/><path d="M310.17,275.65a4.13,4.13,0,0,1,1.45-.39,8.3,8.3,0,0,0,1.73-.4,3.79,3.79,0,0,0,.12-.55c0-.18,0-.78,0-1.81l0-4.21.07-2.26,0-1.75,0-1c0-1.37.06-2.65.06-3.85,0-2.61,0-4.29-.1-5l-1.11-.23a20.19,20.19,0,0,1-2-.19l0-1.13.07-.21a11.16,11.16,0,0,1,1.74-.15l1.75,0,1.47.12,1-.06,2.36-.11a43.15,43.15,0,0,1,4.66-.23,9.09,9.09,0,0,1,6.14,2,5.83,5.83,0,0,1,2.29,4.52,5.45,5.45,0,0,1-1.23,3.46,7.54,7.54,0,0,1-3.79,2.34,10,10,0,0,0,.6.93c.53.75,1,1.39,1.28,1.92l3,4.89a14.45,14.45,0,0,0,1.49,2.27,4.42,4.42,0,0,0,1.44.72,6,6,0,0,1,1.3.65,1.84,1.84,0,0,1,.11.56,3.8,3.8,0,0,1,0,.44h-.88l-1-.13h-.78a10.33,10.33,0,0,0-1.49-.09l-1.88,0c-.14,0-.58,0-1.32.13l-.81.1-.64-1.25c-.53-.94-.9-1.65-1.12-2.11q-.83-1.83-2.84-5.83a7.28,7.28,0,0,0-1.32-2.09,3.5,3.5,0,0,0-1.95-.4c-.25,0-.68,0-1.28,0a12.1,12.1,0,0,0-.06,1.3l.1,4.19-.12,3.54a4.2,4.2,0,0,0,1.38.49,15.25,15.25,0,0,1,2.53.72,9.55,9.55,0,0,1-.08,1.4l-.45,0-.77,0c-2.71-.23-4.31-.35-4.81-.35h-.7l-2.6.17a19.47,19.47,0,0,1-2.17.14h-.81c0-.32,0-.52,0-.61A3.9,3.9,0,0,1,310.17,275.65Zm8.48-12.2,1.32,0c2.14,0,3.66-.38,4.55-1.15a3.84,3.84,0,0,0,1.34-3.07,7.33,7.33,0,0,0-.33-2.23,3.91,3.91,0,0,0-.82-1.56,4.32,4.32,0,0,0-1.82-1.11,9,9,0,0,0-2.66-.28,10.48,10.48,0,0,0-1.48.09l0,.36,0,2.54-.06,1.55,0,2.06c0,.57,0,1.32-.06,2.24Z" transform="translate(-120.58 -234.18)" fill="#fff"/><path d="M336.12,276.82l0-1.23,2.13-.28a1.17,1.17,0,0,0,.65-.39,2.29,2.29,0,0,0,.18-1.14v-.21c0-.15,0-.42,0-.82s0-.74,0-1,0-.7-.06-1.38l0-.94,0-.89.06-3.07a6.44,6.44,0,0,0-.12-1.21,1.64,1.64,0,0,0-.76-.49,7.39,7.39,0,0,0-1.92-.3v-1.06a9,9,0,0,0,3.42-.81,7.86,7.86,0,0,0,2.17-1.6h1.26q.08,2.34.08,6.07l-.14,7.69a12.48,12.48,0,0,0,.08,1.44,11.79,11.79,0,0,0,1.9.41,4.43,4.43,0,0,1,.81.19l0,1-.76,0c-.18,0-.47,0-.86,0-1.28-.06-3-.09-5.14-.09-.61,0-1.21,0-1.79.06S336.33,276.82,336.12,276.82Zm2.64-22.5a2.24,2.24,0,0,1,.66-1.67,2.32,2.32,0,0,1,1.69-.65,2.6,2.6,0,0,1,1.85.69,2.1,2.1,0,0,1,.74,1.55,3,3,0,0,1-.3,1.29,2.26,2.26,0,0,1-.92,1,2.42,2.42,0,0,1-1.29.39,2.34,2.34,0,0,1-1.67-.77A2.54,2.54,0,0,1,338.76,254.32Z" transform="translate(-120.58 -234.18)" fill="#fff"/><path d="M362.52,271.9a4.27,4.27,0,0,0,.45.22,2.15,2.15,0,0,1,.7.47,5.93,5.93,0,0,1-2.47,3.27,8.49,8.49,0,0,1-5,1.37,9.41,9.41,0,0,1-3.74-.79,7.85,7.85,0,0,1-2.94-2.09,6.71,6.71,0,0,1-1.27-2.45,9.28,9.28,0,0,1-.43-2.47,8.89,8.89,0,0,1,.53-2.79,8.31,8.31,0,0,1,1.78-2.93,8.73,8.73,0,0,1,3.13-2.19,10.81,10.81,0,0,1,4.28-.81c2.17,0,3.69.34,4.54,1a2.74,2.74,0,0,1,1.28,2,2.24,2.24,0,0,1-.52,1.57,1.79,1.79,0,0,1-1.42.58,2.25,2.25,0,0,1-1.42-.51,3.68,3.68,0,0,1-1.09-1.72,2.67,2.67,0,0,0-.87-1.26,2.11,2.11,0,0,0-1.26-.38,4.23,4.23,0,0,0-3.17,1.52,5.87,5.87,0,0,0-1.39,4.14,7.16,7.16,0,0,0,1.7,5,5.18,5.18,0,0,0,3.88,1.85,6.06,6.06,0,0,0,1.83-.24,6,6,0,0,0,1.28-.74,6.2,6.2,0,0,0,.78-.81Z" transform="translate(-120.58 -234.18)" fill="#fff"/><path d="M365.19,275.63c.21-.05.77-.13,1.68-.23.41,0,.66-.13.76-.26a3,3,0,0,0,.19-1.34v-1.34l.05-1.41V269.5l0-.38,0-.94,0-.32L368,261v-.52a28.78,28.78,0,0,0-.19-4.34,1.23,1.23,0,0,0-.54-.77,5.9,5.9,0,0,0-2-.53v-.4a6.54,6.54,0,0,1,0-.7l1.59-.33c.31-.09.61-.17.9-.23a14.48,14.48,0,0,0,2.67-.94A4.77,4.77,0,0,1,371,252l1,.08,0,11.28a13.17,13.17,0,0,1,3.13-1.93,7.76,7.76,0,0,1,2.94-.56,5.77,5.77,0,0,1,2.51.51,4.57,4.57,0,0,1,1.65,1.29,4.82,4.82,0,0,1,.82,1.85,14.6,14.6,0,0,1,.17,2.83v1.21l0,2.66-.09,3.85a.44.44,0,0,0,.17.22,7.21,7.21,0,0,0,1.11.27c.34.06.6.12.79.17a1,1,0,0,1,.15.45l0,.14a4.78,4.78,0,0,0,0,.62l-.44,0c-.19,0-.56,0-1.11-.07a26.25,26.25,0,0,0-2.66-.16c-.46,0-1.09,0-1.87.08-.55,0-1.25,0-2.11,0a1.06,1.06,0,0,1-.37-.06v-.45l0-.25a1.33,1.33,0,0,1,.09-.41,3.06,3.06,0,0,1,1-.27l1.09-.15q.08-.36.09-.45l.09-2.75v-4.62a11.19,11.19,0,0,0-.22-2.78,2.16,2.16,0,0,0-1-1.19,3.08,3.08,0,0,0-1.73-.46,5.16,5.16,0,0,0-2.31.55,7.57,7.57,0,0,0-1.91,1.31v3.3c0,1.81,0,3.17-.05,4.08,0,.54,0,.88,0,1A6.51,6.51,0,0,0,372,275a.79.79,0,0,0,.42.41c.46,0,.85.06,1.15.07a3,3,0,0,1,.75.08c0,.31,0,.53,0,.65a3.19,3.19,0,0,1-.08.63l-2.1-.08q-1.19-.09-2.13-.09l-2.65.14-1.85,0a3.45,3.45,0,0,1-.4-.95Z" transform="translate(-120.58 -234.18)" fill="#fff"/><path d="M387.43,266.81a7.78,7.78,0,0,1,.87-2.13,9.62,9.62,0,0,1,2.25-2.42,7.4,7.4,0,0,1,2.16-1.15,7.63,7.63,0,0,1,2-.36,12.3,12.3,0,0,1,2.86.27,5.71,5.71,0,0,1,1.83.79,8.84,8.84,0,0,1,1.7,1.48,6.74,6.74,0,0,1,1.05,1.77,7.37,7.37,0,0,1,.44,2.47l-2.09,0c-.58,0-1.85-.06-3.81-.17-.73-.06-1.24-.09-1.51-.09l-2,0h-1.62a2.57,2.57,0,0,0,0,.45,9.39,9.39,0,0,0,.25,2.11,6.64,6.64,0,0,0,.73,2,5.31,5.31,0,0,0,1.22,1.44,4.8,4.8,0,0,0,1.5.87l1.09.36a13.11,13.11,0,0,0,1.94-.09,9.24,9.24,0,0,0,1.6-.48,10.21,10.21,0,0,0,1.67-1c.45.32.83.62,1.13.88a11,11,0,0,1-3.44,2.65,9.4,9.4,0,0,1-4,.82,9.57,9.57,0,0,1-2.44-.26,7.64,7.64,0,0,1-2.28-1,7.05,7.05,0,0,1-1.75-1.74,8.89,8.89,0,0,1-1.57-4.44A14.85,14.85,0,0,1,387.43,266.81Zm10.95-.8a5.61,5.61,0,0,0-.41-2,3.14,3.14,0,0,0-1.23-1.5,2.89,2.89,0,0,0-4,.57,4.82,4.82,0,0,0-1.15,3l4.3,0q.42,0,1.17-.06c.37,0,.62-.05.78-.05Z" transform="translate(-120.58 -234.18)" fill="#fff"/><path d="M404.65,275.87a1.43,1.43,0,0,1,.64-.32,5.37,5.37,0,0,0,1.83-.75,14.47,14.47,0,0,0,.17-3.05,63.19,63.19,0,0,0-.21-6.44.85.85,0,0,0-.3-.52,5.64,5.64,0,0,0-1.29-.44.55.55,0,0,1-.45-.41l-.06-.7a5.89,5.89,0,0,0,2.53-.95,6.53,6.53,0,0,0,1.7-1.56,4.84,4.84,0,0,1,.53-.66l1.32,0a3.69,3.69,0,0,1,.09.72c0,.14,0,.31,0,.51,0,.44,0,.8,0,1.09,0,.14,0,.66,0,1.57a18.32,18.32,0,0,1,1.13-1.77,12.91,12.91,0,0,1,1-.93,2.42,2.42,0,0,1,1.46-.47,2.48,2.48,0,0,1,1.73.68,2.07,2.07,0,0,1,.74,1.56,2.52,2.52,0,0,1-.56,1.6,1.8,1.8,0,0,1-1.48.71,2.85,2.85,0,0,1-1.7-.68,1.53,1.53,0,0,0-.85-.42l-.13,0a1.47,1.47,0,0,0-.72.71,4,4,0,0,0-.52,2l0,.51c.05.92.09,3.1.12,6.52a2.2,2.2,0,0,0,.36.94,2.17,2.17,0,0,0,.68.37,6,6,0,0,0,1.22.19,2.31,2.31,0,0,1,1.06.24.69.69,0,0,1,.18.53,1.7,1.7,0,0,1-.11.55H413l-3.6-.17a23.08,23.08,0,0,0-2.47.12h-.32l-2,.09a2.7,2.7,0,0,1-.06-.47A2.34,2.34,0,0,1,404.65,275.87Z" transform="translate(-120.58 -234.18)" fill="#fff"/><path d="M419.58,262.52a8.71,8.71,0,0,0,5.34-4.79H426a3,3,0,0,1,.17,1c0,.65,0,1.16,0,1.53l-.05,1.11c0,.06,0,.21,0,.43l.43,0,1.77-.07,1.42,0a3.87,3.87,0,0,1,0,1.91,6.43,6.43,0,0,1-.94.11,4.79,4.79,0,0,1-.61-.08h-1l-.34,0-.9.06,0,7.2a18.64,18.64,0,0,0,.08,2.62,2.59,2.59,0,0,0,.45,1,2.32,2.32,0,0,0,1,.2,2.3,2.3,0,0,0,.75-.09,4,4,0,0,0,.83-.55l.36-.26a5.08,5.08,0,0,1,.74.71l.07.23a4.49,4.49,0,0,1-1.86,1.63,5.6,5.6,0,0,1-2.55.6,3.83,3.83,0,0,1-2.85-1.11,4.76,4.76,0,0,1-1.09-3.45l.07-3.32v-5.36l-.58,0-1.36,0-.24-.1a.53.53,0,0,1-.12-.31C419.54,263.28,419.56,263,419.58,262.52Z" transform="translate(-120.58 -234.18)" fill="#fff"/><path d="M292.84,292.07a12.11,12.11,0,0,1-.27,1.38c-.14.63-.27,1.1-.37,1.42l-.36,0v-.33a3,3,0,0,0-.3-1.7,1.68,1.68,0,0,0-1.25-.34h-1.51a6.74,6.74,0,0,0-2,.35,12,12,0,0,0-2.66,1.3,16.49,16.49,0,0,0-2.13,1.78,19.23,19.23,0,0,0-1.9,2.46l-.43.75-.54,1.36a7,7,0,0,0-.28,1.28,8.69,8.69,0,0,0-.09,1.26,7,7,0,0,0,.19,1.61,3.09,3.09,0,0,0,.51,1.15,7,7,0,0,0,1.41,1.38,5.88,5.88,0,0,0,1.72.85,7.68,7.68,0,0,0,2.26.3,5.41,5.41,0,0,0,2.17-.38,4.39,4.39,0,0,0,1.5-1.07c.14-.15.54-.74,1.21-1.77l.41.13-.68,2.13c-.11.37-.21.64-.27.81a8.94,8.94,0,0,1-1.69.44,20,20,0,0,1-3.23.26,10.91,10.91,0,0,1-3.54-.44,7,7,0,0,1-2.43-1.53,5,5,0,0,1-1.28-2,6.34,6.34,0,0,1-.44-2.23,6.72,6.72,0,0,1,.47-2.65,12.58,12.58,0,0,1,2.31-3.68,14.16,14.16,0,0,1,3.08-2.42,19.75,19.75,0,0,1,3-1.43,9.68,9.68,0,0,1,3.52-.66l2.21,0A6.13,6.13,0,0,1,292.84,292.07Z" transform="translate(-120.58 -234.18)" fill="#fff"/><path d="M300.58,299.36a2.34,2.34,0,0,0,.16-.34,1.14,1.14,0,0,1,.3-.49,4.39,4.39,0,0,1,.52,0,1,1,0,0,1,.41.09l0,.15a.7.7,0,0,1-.06.23,3.43,3.43,0,0,0-.16.48l-.11.25-.83,2.25c-.35,1-.66,1.82-.92,2.42s-.49,1.22-.69,1.84a6.53,6.53,0,0,1-.52,1.34l-.05.12a.32.32,0,0,0,.13.2,4.62,4.62,0,0,0,.89-.68c.63-.63,1-1,1.12-1.17l.25-.3a3.19,3.19,0,0,1,.26.26,12.43,12.43,0,0,1-1.13,1.33,6.14,6.14,0,0,1-1.44,1.2,2.05,2.05,0,0,1-.93.26.61.61,0,0,1-.41-.12.42.42,0,0,1-.14-.32,2.82,2.82,0,0,1,.13-.65,10.73,10.73,0,0,1,.44-1.09c.08-.18.19-.45.34-.82s.25-.62.51-1.18a7.39,7.39,0,0,0-.61.7,19,19,0,0,1-2.4,2.43,10,10,0,0,1-1.5.84,3.75,3.75,0,0,1-1,.21,1.81,1.81,0,0,1-.68-.1,1.29,1.29,0,0,1-.5-.51,1.75,1.75,0,0,1-.14-.82,5.27,5.27,0,0,1,.36-1.79,9.33,9.33,0,0,1,1.24-2.47,12.7,12.7,0,0,1,2.14-2.22,9.37,9.37,0,0,1,1.95-1.19,5.35,5.35,0,0,1,2-.5,2.36,2.36,0,0,1,.54,0A2.13,2.13,0,0,1,300.58,299.36Zm-6.14,8.25a1.91,1.91,0,0,0,.54-.22q.15-.08,1-.69c1.05-1,1.65-1.62,1.78-1.77a10.59,10.59,0,0,0,1-1.35c.1-.14.32-.53.66-1.18l.33-.87a8.74,8.74,0,0,0,.17-.88.94.94,0,0,0-.29-.66.86.86,0,0,0-.63-.19,2.08,2.08,0,0,0-.87.16,6.32,6.32,0,0,0-1.49,1,10.6,10.6,0,0,0-1.75,2,12,12,0,0,0-1.19,2.07,5,5,0,0,0-.48,1.71,1,1,0,0,0,.2.69.61.61,0,0,0,.49.22Z" transform="translate(-120.58 -234.18)" fill="#fff"/><path d="M305.44,299.23a5.69,5.69,0,0,0-.78.71c-.06.07-.45.58-1.14,1.51l-.52,0a7.83,7.83,0,0,1,1.17-1.67,6.38,6.38,0,0,1,1.48-1.36,2.11,2.11,0,0,1,.9-.28.86.86,0,0,1,.44.24.61.61,0,0,1,.11.36,1.63,1.63,0,0,1-.05.43,18,18,0,0,1-.55,2c-.27.86-.52,1.53-.73,2l-.65,1.54-.06.23q.18-.3.72-1.35a25.17,25.17,0,0,1,3-4.79,2.16,2.16,0,0,1,1.55-.65,1.4,1.4,0,0,1,.95.41,1.08,1.08,0,0,1,.32.83,1.47,1.47,0,0,1-.36,1,.92.92,0,0,1-.72.29.67.67,0,0,1-.54-.18,1.76,1.76,0,0,1-.2-.91q-.17-.33-.36-.33a.64.64,0,0,0-.43.21,18.94,18.94,0,0,0-2.28,3.46,33.88,33.88,0,0,0-2.1,4.05,10.89,10.89,0,0,1-.68,1.57.57.57,0,0,1-.51.21.73.73,0,0,1-.48-.12.37.37,0,0,1-.15-.3,1.53,1.53,0,0,1,.13-.58c.36-.88.94-2.51,1.73-4.87l.88-2.69a4.07,4.07,0,0,1,.13-.46l.07-.18C305.69,299.47,305.61,299.37,305.44,299.23Z" transform="translate(-120.58 -234.18)" fill="#fff"/><path d="M314.09,299.32H313l-.81,0H312a1.87,1.87,0,0,1,.22-.64c1.22,0,2-.06,2.17-.09q.25-.6.42-1c.25-.55.5-1.19.77-1.94a5.85,5.85,0,0,1,.27-.67,6,6,0,0,1,.64,0,2.78,2.78,0,0,1,.58.06l0,.2A20.66,20.66,0,0,1,316,298a5.89,5.89,0,0,0-.21.59l.43.06h.68l1.19,0a1.4,1.4,0,0,1-.15.68c-.33,0-.76,0-1.3,0h-.51a2.28,2.28,0,0,0-.73.13l-2.05,4.9q-.33.72-1.17,2.7a.34.34,0,0,0,.08.18l.16,0a1.4,1.4,0,0,0,.84-.43,14,14,0,0,0,2.06-2.2,1.77,1.77,0,0,1,.37.27,24.39,24.39,0,0,1-1.74,2,9.22,9.22,0,0,1-1.28,1,6.88,6.88,0,0,1-.93.58,1.47,1.47,0,0,1-.58.12.71.71,0,0,1-.45-.13.5.5,0,0,1-.15-.39,6.12,6.12,0,0,1,.6-1.7l.53-1.16,1.85-4.47C313.75,300.26,313.94,299.76,314.09,299.32Z" transform="translate(-120.58 -234.18)" fill="#fff"/><path d="M325,301.32a8.24,8.24,0,0,1-1.76,5.18c-1.18,1.51-2.4,2.26-3.67,2.26a2,2,0,0,1-1.65-.76,3.68,3.68,0,0,1-.63-2.38,8.07,8.07,0,0,1,.49-2.52,7.6,7.6,0,0,1,1.27-2.37c.12-.14.26-.31.41-.52a6.24,6.24,0,0,1,1.58-1.45,3.39,3.39,0,0,1,1.87-.6,1.86,1.86,0,0,1,1.49.74A3.85,3.85,0,0,1,325,301.32ZM318.45,307a1.2,1.2,0,0,0,.27.86,1.22,1.22,0,0,0,.88.27,1.74,1.74,0,0,0,1.19-.58A15.4,15.4,0,0,0,324,299.9a1.25,1.25,0,0,0-.27-.84.78.78,0,0,0-.6-.3,2.2,2.2,0,0,0-1.55.86,12.47,12.47,0,0,0-2.36,4A9.91,9.91,0,0,0,318.45,307Z" transform="translate(-120.58 -234.18)" fill="#fff"/><path d="M327,309.08a9.89,9.89,0,0,1-1.23-1.12.44.44,0,0,1-.1-.28.5.5,0,0,1,.13-.34,1.84,1.84,0,0,1,.64-.36,13.81,13.81,0,0,0,1.66-1c-.09-.12-.29-.34-.6-.67l-.4-.44a3.73,3.73,0,0,1-.28-.74,3.69,3.69,0,0,1-.12-.92,4.74,4.74,0,0,1,.23-1.46,6.86,6.86,0,0,1,.84-1.76,5.19,5.19,0,0,1,1-1.13,3.17,3.17,0,0,1,.86-.45,4.23,4.23,0,0,1,1.32-.28,2.92,2.92,0,0,1,1.28.32,2.22,2.22,0,0,0,1,.2,3.22,3.22,0,0,0,.5,0l.41,0,.31,0q0,.38,0,.54a.48.48,0,0,1-.09.26l-.28,0a3.5,3.5,0,0,1-.88-.16l-.43-.12a4.1,4.1,0,0,1,.35,1.7,5.49,5.49,0,0,1-1.25,3.42,5,5,0,0,1-2.9,1.95,3.19,3.19,0,0,0-1.39.58.46.46,0,0,0-.21.4q0,.42.66.93c.53.27,1,.51,1.48.72a9.09,9.09,0,0,1,2.91,1.52,2.14,2.14,0,0,1,.75,1.73,1.89,1.89,0,0,1-.3,1.05,3,3,0,0,1-1,.89,5.59,5.59,0,0,1-1.48.51,9.18,9.18,0,0,1-2,.23,14,14,0,0,1-2.47-.16,8.78,8.78,0,0,1-2.19-.71,3.52,3.52,0,0,1-1.26-1,1.28,1.28,0,0,1-.26-.74,1.23,1.23,0,0,1,.51-1A25.46,25.46,0,0,1,327,309.08Zm-3,4a4.21,4.21,0,0,0,1.88.93l.37.11a5.23,5.23,0,0,0,.77.14c.53,0,1,0,1.35,0a6.19,6.19,0,0,0,2.15-.37,3.11,3.11,0,0,0,1.34-.75,1,1,0,0,0,.21-.65,1.89,1.89,0,0,0-.8-1.39,9.9,9.9,0,0,0-2.45-1.2c-.56-.22-1-.41-1.36-.56a14.66,14.66,0,0,0-2.19,1,5.11,5.11,0,0,0-1.08.73,2.73,2.73,0,0,0-.41.41,1.38,1.38,0,0,0-.15.62A1.29,1.29,0,0,0,324,313.1Zm4.82-7.42a2.15,2.15,0,0,0,1.1-.47,4.14,4.14,0,0,0,.72-1,8.73,8.73,0,0,0,.74-1.53,8.14,8.14,0,0,0,.56-2.57,1.54,1.54,0,0,0-.34-1.05,1.07,1.07,0,0,0-.85-.37,1.59,1.59,0,0,0-1.06.47,6.8,6.8,0,0,0-1.24,2.3,8.55,8.55,0,0,0-.73,2.85,1.43,1.43,0,0,0,.32.92A1.22,1.22,0,0,0,328.84,305.68Z" transform="translate(-120.58 -234.18)" fill="#fff"/><path d="M337.06,299.23a4.73,4.73,0,0,0-.78.71c-.07.07-.45.58-1.14,1.51l-.52,0a7.83,7.83,0,0,1,1.17-1.67,6.38,6.38,0,0,1,1.48-1.36,2.11,2.11,0,0,1,.9-.28.82.82,0,0,1,.43.24.56.56,0,0,1,.12.36,1.63,1.63,0,0,1-.05.43,18,18,0,0,1-.55,2c-.27.86-.52,1.53-.73,2l-.66,1.54-.05.23q.18-.3.72-1.35a25.88,25.88,0,0,1,3-4.79,2.2,2.2,0,0,1,1.56-.65,1.4,1.4,0,0,1,.95.41,1.11,1.11,0,0,1,.32.83,1.47,1.47,0,0,1-.36,1,.92.92,0,0,1-.72.29.71.71,0,0,1-.55-.18,1.79,1.79,0,0,1-.19-.91q-.17-.33-.36-.33a.64.64,0,0,0-.43.21,17.88,17.88,0,0,0-2.28,3.46,33.88,33.88,0,0,0-2.1,4.05,10.89,10.89,0,0,1-.68,1.57.59.59,0,0,1-.52.21.77.77,0,0,1-.48-.12.39.39,0,0,1-.14-.3,1.53,1.53,0,0,1,.13-.58c.36-.88.93-2.51,1.73-4.87l.88-2.69a4.07,4.07,0,0,1,.13-.46l.07-.18C337.31,299.47,337.23,299.37,337.06,299.23Z" transform="translate(-120.58 -234.18)" fill="#fff"/><path d="M350.44,299.36a2.34,2.34,0,0,0,.16-.34,1.14,1.14,0,0,1,.3-.49,4.39,4.39,0,0,1,.52,0,1,1,0,0,1,.41.09l0,.15a.7.7,0,0,1-.06.23,3.43,3.43,0,0,0-.16.48l-.11.25-.83,2.25c-.35,1-.66,1.82-.92,2.42s-.49,1.22-.69,1.84a7.18,7.18,0,0,1-.52,1.34l-.05.12a.32.32,0,0,0,.13.2,4.62,4.62,0,0,0,.89-.68c.63-.63,1-1,1.12-1.17l.25-.3a3.19,3.19,0,0,1,.26.26,12.43,12.43,0,0,1-1.13,1.33,6.14,6.14,0,0,1-1.44,1.2,2.05,2.05,0,0,1-.93.26.61.61,0,0,1-.41-.12.42.42,0,0,1-.14-.32,2.82,2.82,0,0,1,.13-.65,10.73,10.73,0,0,1,.44-1.09c.08-.18.19-.45.34-.82s.25-.62.51-1.18a7.39,7.39,0,0,0-.61.7,19,19,0,0,1-2.4,2.43,10,10,0,0,1-1.5.84,3.75,3.75,0,0,1-1,.21,1.78,1.78,0,0,1-.67-.1,1.29,1.29,0,0,1-.5-.51,1.75,1.75,0,0,1-.14-.82,5.27,5.27,0,0,1,.36-1.79,9.33,9.33,0,0,1,1.24-2.47,12.7,12.7,0,0,1,2.14-2.22,9.37,9.37,0,0,1,1.95-1.19,5.35,5.35,0,0,1,2-.5,2.36,2.36,0,0,1,.54,0A2.13,2.13,0,0,1,350.44,299.36Zm-6.14,8.25a1.91,1.91,0,0,0,.54-.22c.1-.05.44-.28,1-.69,1.06-1,1.66-1.62,1.79-1.77a10.59,10.59,0,0,0,1-1.35c.1-.14.32-.53.66-1.18l.33-.87a8.74,8.74,0,0,0,.17-.88.94.94,0,0,0-.29-.66.86.86,0,0,0-.63-.19,2.08,2.08,0,0,0-.87.16,6.32,6.32,0,0,0-1.49,1,10.6,10.6,0,0,0-1.75,2,12,12,0,0,0-1.19,2.07,5,5,0,0,0-.48,1.71,1,1,0,0,0,.2.69.61.61,0,0,0,.49.22Z" transform="translate(-120.58 -234.18)" fill="#fff"/><path d="M347.62,314.53c.31-.07.72-.14,1.22-.2l.55-.06.38-.08A.63.63,0,0,0,350,314a2.63,2.63,0,0,0,.34-.67l1.25-3.26c.17-.43.34-.91.5-1.43.1-.32.21-.64.33-.95a5.71,5.71,0,0,0,.21-.6,2.39,2.39,0,0,1,.13-.42l1.16-3.26c.05-.12.36-1,.95-2.76.17-.52.33-1,.47-1.56a13.46,13.46,0,0,0-1.55.35l-.39.12a2.54,2.54,0,0,1-.58.18,1.2,1.2,0,0,1-.32-.08l0-.14a.35.35,0,0,1,.2-.3,10.76,10.76,0,0,1,2.92-.88,20.81,20.81,0,0,0,.73-2.14,2.68,2.68,0,0,1,.42-1,1.73,1.73,0,0,1,.32,0l.53,0a.63.63,0,0,1,.21.36l-.05.18s-.07.23-.16.58a6.61,6.61,0,0,1-.24.71c-.22.56-.36.94-.41,1.13l.74,0,.6,0h.06a3.28,3.28,0,0,1,1.39.35,3.32,3.32,0,0,1,1.48,1.35,4,4,0,0,1,.46,2,5.55,5.55,0,0,1-.33,1.8,7.8,7.8,0,0,1-1,1.95,7.15,7.15,0,0,1-1.52,1.66,5.22,5.22,0,0,1-1.51.9,8.1,8.1,0,0,1-2,.53,3.35,3.35,0,0,1-.79-.1,8,8,0,0,1-1-.3q-.5,1-1.67,4.36c-.15.44-.27.77-.37,1a1.36,1.36,0,0,0-.13.49v.12l.14.11a3.43,3.43,0,0,0,.81.13,6,6,0,0,1,.82.08.42.42,0,0,0,.16.09l.07.2a.21.21,0,0,1-.07.14c-.32,0-.57,0-.75,0h-.59l-2.31-.09a4.74,4.74,0,0,0-1,.08l-.76,0h-.46l0-.09A1,1,0,0,1,347.62,314.53Zm10.45-7.8a8.08,8.08,0,0,0,1.66-2.63,6.89,6.89,0,0,0,.5-2.34,4.78,4.78,0,0,0-.18-1.29,1.19,1.19,0,0,0-.36-.63,2.57,2.57,0,0,0-.75-.57,3.78,3.78,0,0,0-1.54-.26l-.69,0c-.55,1.73-1,3.07-1.37,4l-1,3a4.11,4.11,0,0,0-.18.71,2.1,2.1,0,0,0,0,.37.74.74,0,0,0,.24.62,1.69,1.69,0,0,0,1,.29,2.87,2.87,0,0,0,1.16-.24A9.81,9.81,0,0,0,358.07,306.73Z" transform="translate(-120.58 -234.18)" fill="#fff"/><path d="M366.82,292.23l.05-.26q2.13-.24,2.58-.24h.4l-.07.24-.33.84-.73,2.1c-.11.32-.27.82-.48,1.49-.38,1.24-.78,2.36-1.19,3.35s-.81,2.08-1.17,3.24c.13-.16.3-.4.51-.7a16.58,16.58,0,0,1,3-3.47,2.68,2.68,0,0,1,1.62-.63,1.39,1.39,0,0,1,1.1.54,2.51,2.51,0,0,1,.47,1.66,10,10,0,0,1-.72,3.39,11.32,11.32,0,0,1-1.69,3.17,5.94,5.94,0,0,1-1.68,1.58,2.87,2.87,0,0,1-1.26.35,1,1,0,0,1-.74-.27,1.15,1.15,0,0,1-.38-.8.48.48,0,0,1,.2-.36.82.82,0,0,1,.53-.17.68.68,0,0,1,.4.11,2.52,2.52,0,0,1,.47.57.61.61,0,0,0,.35.2c.16,0,.37-.18.65-.54a16.19,16.19,0,0,0,1.83-4.11,12.67,12.67,0,0,0,.82-3.63,1.61,1.61,0,0,0-.19-.92.63.63,0,0,0-.52-.24,1,1,0,0,0-.41.11,5.84,5.84,0,0,0-1.47,1.17,33.88,33.88,0,0,0-2.52,3.21,18.33,18.33,0,0,0-1.23,2.41c-.57,1.26-1,2.14-1.17,2.66a1.14,1.14,0,0,1-.3.49.67.67,0,0,1-.39.11.65.65,0,0,1-.39-.1.4.4,0,0,1-.11-.29,2.11,2.11,0,0,1,.19-.69l.89-2.25c.05-.11.09-.22.13-.33l3.49-10.16.5-1.46a2.53,2.53,0,0,0,.2-.76.32.32,0,0,0-.07-.23.46.46,0,0,0-.29-.12A5.06,5.06,0,0,1,366.82,292.23Z" transform="translate(-120.58 -234.18)" fill="#fff"/><path d="M368.46,313.68a1.64,1.64,0,0,0,.46.37,2,2,0,0,0,.66.08,4.15,4.15,0,0,0,1.57-.37,4.75,4.75,0,0,0,1.33-.77,10.89,10.89,0,0,0,1.86-1.75,6,6,0,0,0,1-1.67,10.69,10.69,0,0,0,.6-2.58,22,22,0,0,0,.2-2.67c0-.44,0-1.24-.06-2.41a8.51,8.51,0,0,0-.2-1.63,1.24,1.24,0,0,0-.35-.63.39.39,0,0,0-.28-.1.65.65,0,0,0-.51.25,6.12,6.12,0,0,0-.86,2.05l-.11,0a.54.54,0,0,1-.31-.14,15.09,15.09,0,0,1,.63-2,4.64,4.64,0,0,1,.68-1.12,1.93,1.93,0,0,1,.58-.38l.31,0c.49,0,.88.32,1.17.95a8.68,8.68,0,0,1,.6,3.56c0,.68,0,1.52-.14,2.53a19.78,19.78,0,0,1-.31,2.23q-.21,1-.24,1.26a1.17,1.17,0,0,0,.14-.19,25,25,0,0,0,1.38-2.31,12.18,12.18,0,0,0,.83-2,18.37,18.37,0,0,0,.58-2.38,9.74,9.74,0,0,0,.13-1.59c0-.21,0-.39,0-.54s0-.33,0-.37a1.52,1.52,0,0,1,.24-.93.47.47,0,0,1,.44-.18.59.59,0,0,1,.48.18.84.84,0,0,1,.16.58,15.39,15.39,0,0,1-.72,3,21.61,21.61,0,0,1-5.68,10,9.5,9.5,0,0,1-2.92,2.09,6.79,6.79,0,0,1-2.64.66,4,4,0,0,1-2.06-.38c-.37-.26-.55-.52-.55-.78a.57.57,0,0,1,.19-.43.6.6,0,0,1,.44-.18,1.66,1.66,0,0,1,.74.19A2.82,2.82,0,0,1,368.46,313.68Z" transform="translate(-120.58 -234.18)" fill="#fff"/></svg>