
<svg id="b9083da6-90c8-4734-8769-fe4f4b7239b7" data-name="Layer 2" xmlns="http://www.w3.org/2000/svg" viewBox="-167 0 1001 829">
    
    <g id="f6826863-3eb4-4e6d-8794-e7b0ffdfe733" data-name="WoodFADE">
        
        <path id="e1badb24-7cb7-4b9c-ac6c-025d21f8d6d1" data-name="BACK" d="M903.55,397.19,555.35,128.9a16.43,16.43,0,0,0-10-3.4H533.51a16.33,16.33,0,0,0-10,3.41L176.44,396.84a16.37,16.37,0,0,0-3.29,22.5l32.2,44.82a16.36,16.36,0,0,0,22.88,3.71l40.55-29.36.15-.1V939.79a14.71,14.71,0,0,0,14.71,14.71H795.23a14.7,14.7,0,0,0,14.7-14.71V431.53l38.33,33.05a16.36,16.36,0,0,0,23.31-2l34.62-42A16.35,16.35,0,0,0,903.55,397.19Z" transform="translate(-170.08 -125.5)" />
        
        <g id="ad2940da-19d7-40d9-8645-b0bd015f54fd" data-name="panels">
            
            <path d="M196.13,418.63l15.09,19.73a9.1,9.1,0,0,0,12.67,1.76L534.18,208.61a9.11,9.11,0,0,1,11,.07L851.77,443.21a9.11,9.11,0,0,0,12.51-1.38l19.33-23.08a9.1,9.1,0,0,0-1.4-13L547.15,146.4a9.15,9.15,0,0,0-5.57-1.9h-8.74a9.12,9.12,0,0,0-5.63,1.95L197.73,406A9.1,9.1,0,0,0,196.13,418.63Z" transform="translate(-170.08 -125.5)" fill="#960"/><rect x="118.61" y="375" width="105" height="90" fill="#960"/><rect x="118.61" y="473" width="105" height="90" fill="#960"/><path d="M288.69,892.5v29.2a14.74,14.74,0,0,0,14.8,14.74l90.2-.36V892.5Z" transform="translate(-170.08 -125.5)" fill="#960"/><path d="M784.9,413.08,771.06,402.5H311.63l-17.3,13.57a14.75,14.75,0,0,0-5.64,11.6V492.5H395.06a19.09,19.09,0,0,1,17.72-12H665.6a19.09,19.09,0,0,1,17.71,12H790.69V424.79A14.71,14.71,0,0,0,784.9,413.08Z" transform="translate(-170.08 -125.5)" fill="#960"/><rect x="118.61" y="669" width="105" height="90" fill="#960"/><rect x="118.61" y="571" width="105" height="90" fill="#960"/><rect x="514.61" y="375" width="106" height="90" fill="#960"/><polygon points="151.75 269 590.51 269 472.75 179 266.46 179 151.75 269" fill="#960"/><path d="M632.36,296.5l-85-64.93a14.83,14.83,0,0,0-6.06-2.74h0a14.75,14.75,0,0,0-12,2.86L446.74,296.5Z" transform="translate(-170.08 -125.5)" fill="#960"/><rect x="514.61" y="571" width="106" height="90" fill="#960"/><rect x="514.61" y="473" width="106" height="90" fill="#960"/><rect x="514.61" y="669" width="106" height="90" fill="#960"/><path d="M684.69,892.5v42.42l91.31-.36a14.74,14.74,0,0,0,14.69-14.74V892.5Z" transform="translate(-170.08 -125.5)" fill="#960"/><polygon points="325.27 361 325.27 592.26 411.94 461.05 411.94 361 325.27 361" fill="#960"/><polygon points="419.94 361 419.94 448.94 478.02 361 419.94 361" fill="#960"/><polygon points="411.94 810 411.94 608.07 325.27 739.28 325.27 810 411.94 810" fill="#960"/><path d="M487.35,486.5H415.78a14.09,14.09,0,0,0-14.09,14.09v359l85.66-129.7Z" transform="translate(-170.08 -125.5)" fill="#960"/><polygon points="317.27 751.4 278.57 810 317.27 810 317.27 751.4" fill="#960"/><path d="M590,721.46v214H662.6a14.09,14.09,0,0,0,14.09-14.09V590.25Z" transform="translate(-170.08 -125.5)" fill="#960"/><path d="M659.41,486.5h0a3.2,3.2,0,0,0-2.67,1.43L402.21,873.29a3.21,3.21,0,0,0-.52,1.76v43.17A17.28,17.28,0,0,0,419,935.5h18.37a3.2,3.2,0,0,0,2.66-1.43L676.16,576.53a3.22,3.22,0,0,0,.53-1.76v-71A17.28,17.28,0,0,0,659.41,486.5ZM448.25,872.58c-11.11,0-11.09-17.24,0-17.24S459.34,872.58,448.25,872.58Zm93.41-142.05c-11.11,0-11.09-17.24,0-17.24S552.75,730.53,541.66,730.53Zm93.41-142c-11.11,0-11.09-17.24,0-17.24S646.16,588.48,635.07,588.48Z" transform="translate(-170.08 -125.5)" fill="#960"/>
        
        </g>
        
        <path id="ee0a031d-48d5-4c36-9dca-c1477c425c6e" data-name="Door" d="M671.56,468.5H403.44A22.44,22.44,0,0,0,381,490.94V936.06c0,.44,10.05.44,22.44.44l7.91-2c-9.58,0-16.35-7.77-16.35-17.35V498.85a17.35,17.35,0,0,1,17.35-17.35h254.3A17.35,17.35,0,0,1,684,498.85v418.3c0,9.58-6.77,17.35-16.35,17.35l3.91,1c12.39,0,22.44-.56,22.44-1V490.94A22.44,22.44,0,0,0,671.56,468.5Z" transform="translate(-170.08 -125.5)" fill="#630"/>
    
    </g>

</svg>