<svg id="b998c7b3-ce2d-47c8-8845-1846e3ef4dd3" data-name="Layer 2" xmlns="http://www.w3.org/2000/svg" viewBox="-167 0 1001 829">

<g id="a8e72e61-e61b-4998-909a-1376b4c3c60e" data-name="WATER"><path id="b19ed443-aa68-4357-ac02-319fd7e625ee" data-name="BACK2" d="M903.55,397.19,555.35,128.9a16.43,16.43,0,0,0-10-3.4H533.51a16.33,16.33,0,0,0-10,3.41L176.44,396.84a16.37,16.37,0,0,0-3.29,22.5l32.2,44.82a16.36,16.36,0,0,0,22.88,3.71l40.55-29.36.15-.1V939.79a14.71,14.71,0,0,0,14.71,14.71H795.23a14.7,14.7,0,0,0,14.7-14.71V431.53l38.33,33.05a16.36,16.36,0,0,0,23.31-2l34.62-42A16.35,16.35,0,0,0,903.55,397.19Z" transform="translate(-170.08 -125.5)"/>

<g id="b34f75b3-dbe4-41c1-8c32-1945ff55eae0" data-name="WaterBACKlight"><path d="M298.37,523c-14.25-55.36-11.45,74.73-11,78.08,10.63-3.57,10.69,2.2,11,11.28,16.38,3.11,31.68-9.41,49.17-11.14-2.47,25.68,28.27,5.06,42,2.55l.4-91.75c-11,1.84-22.6,7.5-33.28,10.4C349.77,496.87,324.39,519.64,298.37,523Z" transform="translate(-170.08 -125.5)" fill="#77d6fc"/><path d="M298.32,808.39c93.59-25,11.3,19.51,90.33-8.35,0,0,.38-90.11.38-90.11-12.64,4-24.62,10.3-38.22,8.51,4.33-14.46,25.86-8.12,38.26-17l.39-89.79c-11.5-.27-24.12,5.68-35.93,9.54-8.21,2.44-10.68-1.93-6.2-9.12-20.86-10.48-56.43,27.53-60-1.72,6,7.6-14.6,106.53,14.94,85.92-4.35,37.94,51.6-19,51.24,11-10.34-9.84-58.41,30.57-56.36-.78-19.16-17.07-5.8,88.35-9.46,90.59C298.24,793.43,297.93,799.68,298.32,808.39Z" transform="translate(-170.08 -125.5)" fill="#77d6fc"/><path d="M790.93,926l-.09-20.62c-53.51,20.21-48.27-.15,0-10.32,0,0-.4-87.47-.4-87.47-95.23,29.08-8.12-18.89-75,5.23-8.18,3.06-16.36,5.95-24.69,5.4,1.6,22.13-7.68,104.51,24.14,84.47,10.88-5.36,47.61-15.88,29.19,1.1-24.53,1.32-41.92,22.53-53.12-.91,0,0,.08,38.12.08,38.12C704.48,935.74,793.52,954.72,790.93,926Z" transform="translate(-170.08 -125.5)" fill="#77d6fc"/><path d="M388.18,906.17c-47.2,18.81-44.48-1,.05-10.19l.38-88.54c-14.23,2.32-32.27,11.25-46.66,10.17,3.11-6.94,7.91-13.39-3.38-11.19-10.31-6.31-53.4,31-50.83-1.91,5.31,4.67-12.35,104.91,11.57,86.74-.77,29.91,31.39,1,50.31,1.16,5.47,18.59-24.95,9.38-36.21,21-19.75,9.28-10.4-15-25.48-10.36.59,12.11-4.44,38.34,15,37.91H388Z" transform="translate(-170.08 -125.5)" fill="#77d6fc"/><path d="M790.78,433c-13.51.8-23.85-8.12-33-15.76-22.88,7.58-48.13,10.06-65.07-9.56-.65-.83-30.49,9.33-27.42,4.86-14.84,1.79-74.15,26.35-65.06-9.55-24.8,6.24-71.38,14.57-96.67,20.71-9.41-1.77-14.62-11.75-12.42-21.21-35.23,9.78-60.85,8.44-100.61,21.46-10.3-.54-16.61-12-14.24-21.46-16.17,0-68.71,18.12-87.12,22.06-5.23,1.18-.51,76.51-2,80.7,24.55-7.32,7.32,7.46,19.14,8.39,11.38-3,44.47-20.91,54.66-2.4,19.43,1.81,28.65,1.54,29.58-13.39-2.28-3.16-2.67-7.71-.43-10.85,0-.32-.06-.63-.1-1a9,9,0,0,1,1.54-.56,9.18,9.18,0,0,1,3.47-1.65c61.41-15.12,125-9,187.58-9a8.39,8.39,0,0,1,6,2.29c6.35.14,12.57.31,18.6.53a280,280,0,0,1,35.62-1.72c8.64.11,17.51.59,25.95,2.58,5.74,1.35,13,4.05,16.1,9.57A7.64,7.64,0,0,1,688,491c-3.88,20.75,17.26,3.3,18.91,22,20.49-.47,43.78-18,62.26-.08,5.87-3.78,13.33-6.24,19.87-7.65C788.31,501.91,790.91,438.48,790.78,433Z" transform="translate(-170.08 -125.5)" fill="#77d6fc"/><path d="M696.6,808.72c16.37,3.12,31.67-9.43,49.16-11.15-2.24,26.65,30.36,3.61,44.6,1.92l-.4-89.91c-13.58,3.54-26.35,11.19-40.87,9.19,5-14.4,27.65-9.29,40.83-18.32l-.4-88.4c-11.52-5.22-55.84,25-43.91.33-75.5-2.6-52.16,31.86-55.22,85.3,15-5.31,7.51,10.86,17.3,13.36,10.22-6.68,61-20.6,38-3.45-6.27-8.67-54.68,30.7-50.24-.82-.14-1.43-2.11-1.63-5.06-1.09C688.88,716.35,691.45,809.89,696.6,808.72Z" transform="translate(-170.08 -125.5)" fill="#77d6fc"/><path d="M696.65,523.36c-10.32-53.54-6,68.84-6.49,77.43,14.55,22.59,27.6,5.71,55.61.78-1.32,12.7,5.29,14.74,16.45,11.14,44.7,2.5,22.15-75.68,26.86-100.48C713.43,540.06,794.31,489.78,696.65,523.36Z" transform="translate(-170.08 -125.5)" fill="#77d6fc"/><path d="M383.92,394.45c-9.16,46.17,93.33-2.83,109.69,0-9.14,46.17,93.32-2.83,109.69,0-6.15,46,89.11-4.32,112.3-3a16.27,16.27,0,0,0,19.45,20.1l30.12-7.21C758.45,399.66,655,313,648,317c-9.27-12.1-21.33,3.9-33.41,2.58-4.5-7.91-9-.45-16.4,2-8.54-.9-17-.87-22.88-10.39-7.69,4.7-16.4,12.94-26,9.51-4.53-1.76-7.63-7.49-5.29-11.76-11.52,1.32-52.14,28.35-42.39,1.37-3.55,2.6-63.15,25.84-53.4,2.14-20.1-9.56-132.11,93.37-147.78,102.07Z" transform="translate(-170.08 -125.5)" fill="#77d6fc"/><path d="M427.92,314l31.27-12.59c-21.11,25,35.66,3,45.52.51,10.31,24.47,41.21.27,57.77-4.51-21.07,25,35.64,3,45.53.51,3.1,13.45,22.16,12.31,32.16,6.38C515.5,195.78,547.86,226,427.92,314Z" transform="translate(-170.08 -125.5)" fill="#77d6fc"/></g>

<g id="f78aa310-014f-479c-9f8e-1b2cf1fc36d9" data-name="WATERmidtolight">
    
    
    <path d="M387.34,595.74a413.49,413.49,0,0,1,2.37-42c1.19-10.62,2.45-21.26,3-31.94,0-.54.05-1.08.07-1.63-1.63-8.25-5.48-14-13.38-15.07,1.46-2.92,1.84-7.27,3.58-10.14-17.49-6.13-39.18,9.27-56.82,11.15,3.31-24.51-27.41-7.31-39.4-.49v90a72.6,72.6,0,0,1,38.21-12.46c-.6,31.54,40.58-5.41,58.5,1.42C377.72,594.21,379.23,596,387.34,595.74Z" transform="translate(-170.08 -125.5)" fill="#069"/><path d="M384.21,897.71c-5.28-.39-5.59-2.85-.78-11.15-19.43-3.28-37.93,14.16-57.36,10.88,2.1-24.28-26.47-5.11-39.37.08,1.78,10.35-6.07,48.55,12.8,40.15,32.28-28.33,13.36,26.65,76.23-7.7-11.49,14.14-.12,11.27,11.27,11C385.49,926.59,384.6,912.16,384.21,897.71Z" transform="translate(-170.08 -125.5)" fill="#069"/><path d="M388.37,791.7c1.53-18.47,2.95-36.94,3.08-55.49.08-11.56-.16-23.11-.54-34.65-11.27.79-13.83,0-7.48-11-19.44-3.28-37.93,14.18-57.36,10.9,6.34-27.26-30-2.62-39.4,0q0,45,.07,90.1a72.41,72.41,0,0,1,38.19-12.46c-.6,31.54,40.58-5.41,58.5,1.42C377.49,790.61,379.36,792.12,388.37,791.7Z" transform="translate(-170.08 -125.5)" fill="#069"/><path d="M390.45,689.23c-.78-18.91-1.84-37.81-2.51-56.73-.31-8.62-.54-17.24-.61-25.84-3.18-2.57-7.74-3.43-14.17-1.93,4.78-27-39.59,1.69-54.9,1.52,2.63-21.47-19.48-11.48-31.39-3.48v90c11.52-5.9,47.88-25.94,44.34-1.16C353.17,696.45,380.7,666.43,390.45,689.23Z" transform="translate(-170.08 -125.5)" fill="#069"/><path d="M385.11,836.1c.63-12.47,1.64-24.91,2.68-37.34-10.53,1-23.36,6.27-13.22-9-19.43-3.28-37.93,14.17-57.36,10.89,4.52-24.71-20.47-6.36-30.4-1.94q0,45,.07,90.1c11.48-6.39,44.49-27.08,41.33-2.16,15.15,5.83,45.5-19.12,55.76-9.17C384,863.65,384.42,849.86,385.11,836.1Z" transform="translate(-170.08 -125.5)" fill="#069"/><path d="M685.15,603.09v90c11.52-5.9,47.88-25.94,44.34-1.16,17.34,6.27,56.66-28.73,56.21-1.19,11.35,2,1.06-71.26,4.42-87.74-9.68.18-26.24,8.67-16.75-7.56-17.49-6.14-39.19,9.26-56.82,11.14C719.17,585.1,697.06,595.09,685.15,603.09Z" transform="translate(-170.08 -125.5)" fill="#069"/><path d="M685.1,799l.06,90.1c11.22-7.64,26.63-14,40.19-14.46-.59,31.53,40.58-5.4,58.5,1.41,11.78,46.76,4.33-81.35,6.26-77-4.38,0-17.75,2-22.13,2,13.85-28.78-38,6.19-52.48,0C720,776.26,695,794.56,685.1,799Z" transform="translate(-170.08 -125.5)" fill="#069"/><path d="M777.65,505.4c1.45-2.91,1.84-7.26,3.57-10.13-17.48-6.14-39.18,9.27-56.82,11.14,3.25-24-26.24-8-38.68-.89,3,17.49,2.88,35.6,2.06,53.15-.58,12.39-1.64,24.76-2.57,37.13a72.48,72.48,0,0,1,38-12.33c-.59,31.54,40.58-5.42,58.5,1.41-6.61,11.19-3.55,11.81,8.26,10.94C783.34,570.3,805.33,509.19,777.65,505.4Z" transform="translate(-170.08 -125.5)" fill="#069"/><path d="M685,897.85c1.78,10.35-6.06,48.55,12.8,40.15,32.28-28.33,13.36,26.65,76.23-7.7-13.08,16.1,3.49,10.13,16,11.1V897.84c-11.9.82-14.78.29-8.26-11-19.43-3.28-37.93,14.16-57.36,10.88C726.45,873.49,697.88,892.66,685,897.85Z" transform="translate(-170.08 -125.5)" fill="#069"/><path d="M685,701.83l.06,90.1a72.44,72.44,0,0,1,38.19-12.46c-.59,31.54,40.58-5.42,58.5,1.41-6.61,11.19-3.55,11.81,8.26,10.94v-90c-11.93.88-14.75.25-8.26-11-19.43-3.28-37.93,14.17-57.36,10.89C730.69,674.52,694.35,699.16,685,701.83Z" transform="translate(-170.08 -125.5)" fill="#069"/><path d="M788.69,463.64c-2.1-14.3,5.52-34.51-5.79-45.56-13.59-11.61-15.11-11.08-32.53-11.84-12.35.19-21.42-8.9-29.89-15.54l-67.23,15.66c-14.07,3.11-31-5.91-25.25-20.36l-89.81,20.66c-12.61,2.83-22.26-9.17-19.27-21.16l-95.53,21.15c-12.6,3.05-22.27-9.66-19.33-21.15-35.67,12.09-127,10.36-117.93,66.59,2.85,48.3-11,47.28,39.51,34.37,8.59-.89-.77,12.11,8.41,10.2,42.6-21.47,49.22-3.15,57.24-2.26a9.92,9.92,0,0,1,1-1.51c-3.52-4.68-2.92-12.43,4.38-14,21-4.46,42.57-4.65,64-3.6,18.82.92,37.59,2.73,56.43,3.18,17,.41,34,.3,50.92.46,32.42.31,65.67,1.33,97.81-3.74,4.36-.69,8.73.83,10.57,4.9a8.85,8.85,0,0,1,4.21,5.09c1.18,3.44,2.18,6.93,3,10.46a13.16,13.16,0,0,0,8.72-.16c16.21-8.56,37.55-16.89,49.87-.75,14.2-5.44,36.7-17.14,43.73-1.75C791.78,507.94,787.45,467.23,788.69,463.64Z" transform="translate(-170.08 -125.5)" fill="#069"/><path d="M630.36,301.5c-29-21.72-58.44-45.53-87.83-66.65-17.78-5.46-31.93,18.49-46.16,26.14L444.74,301.5l42.2-17c-21.09,25,35.65,3,45.53.52,7.34,21.08,32.84,5.16,46.84.53-9.64,21.93,24.81-2.35,27.21,1.46C602.33,296.73,625.77,298.48,630.36,301.5Z" transform="translate(-170.08 -125.5)" fill="#069"/><path d="M319.83,399.5c.37,1.32,94.92-25.38,91.54-20.48a16.22,16.22,0,0,0,19.49,19c.63,1.16,93.5-23.63,90.2-19a16.22,16.22,0,0,0,19.49,19c-.08.92,93.25-23,90.27-19.31a16.22,16.22,0,0,0,19.68,18.93c81.15-18.94,37-17.63,108.09,1.89L670.27,332c-7.45-5.68-21.91-16.75-29.44-22.5-12.23-9.34-28.45-.08-37.79-15.32-7.69,4.7-16.39,12.93-26,9.5-4.54-1.76-7.63-7.49-5.29-11.76-11.55,1.35-52.11,28.3-42.4,1.38-3.53,2.59-63.16,25.84-53.39,2.13-32.81-.32-59.71,30-84.42,47.82Z" transform="translate(-170.08 -125.5)" fill="#069"/></g>

<g id="b66c959b-84ca-4687-a79e-b5f28f893897" data-name="black">
    <path d="M290.13,889.63c1.4.2,2.8.37,4.21.53,11.39-5.51,21.22-10.67,34.7-10.28-.22,27.19,31.4,2.1,51.13.29.27-3.58.64-7.16,1.17-10.72-19.89,2.53-50.72,26.52-50.18-.77-29.25,9-38.77,11.83-41.11,5.82C290.11,881.17,290.15,886.59,290.13,889.63Z" transform="translate(-170.08 -125.5)"/><path d="M382.26,794.33c-.21-6.74-.3-13.5-.34-20.26-19.65.38-53.46,28-52.9-.55A72.41,72.41,0,0,0,290.84,786v-3.87c-.36.21-.72.42-1.07.64.2,5.82.44,10.24.72,12.28l.28.07c1.45-5.41,28.73-17.12,29.41-12.06-5.92,37,70.22-23.79,53.63,12C375.56,795,378.77,794.72,382.26,794.33Z" transform="translate(-170.08 -125.5)"/><path d="M349.9,893c-1.66-.81-3.9-.72-6.48-.11C345.58,892.88,347.74,892.91,349.9,893Z" transform="translate(-170.08 -125.5)"/><path d="M686.09,487.82s0,.09,0,.14l.17.1.06,1.34a10.59,10.59,0,0,0,3.83,1.23C690.23,490.49,688.55,489.36,686.09,487.82Z" transform="translate(-170.08 -125.5)"/><path d="M311.64,406.63l4.71-3.71q-3.57,2.11-6.54,3.94Z" transform="translate(-170.08 -125.5)"/><path d="M383.37,598.91c0-7-.24-13.94-.92-20.83-19.56-.14-54,28.27-53.43-.56A72.5,72.5,0,0,0,290.82,590v-.4a7.62,7.62,0,0,1-1.35.51c.08,1.34.15,2.58.24,3.7a39.73,39.73,0,0,1,5.18,1.09c9.7-8.82,31.3-12.13,27.47,5.75,15.3.18,59.68-28.47,54.89-1.53C379.27,599,381.38,599,383.37,598.91Z" transform="translate(-170.08 -125.5)"/><path d="M782.14,935.77a68.27,68.27,0,0,0-10.62.11l6.59-11.21c-13.08,5.86-56.7,24.93-51-.41-14-7.59-25.57,16.88-34.06,7.09,0,0,0,4,0,6.71h8.37c4.58-3,8.83-6.81,14.2-1.37a9.7,9.7,0,0,0,.79,1.37H741c7.65-1.54,15.3-2.79,21.13,0h12.1A14.88,14.88,0,0,0,782.14,935.77Z" transform="translate(-170.08 -125.5)"/><path d="M632.1,380.38C627,407.47,658,402.31,686,394.77a54.44,54.44,0,0,1,17.72-5c9.15-2.62,16.74-4.68,20.84-4.67C734.73,395,748.2,402,763.33,401.34l-11.76-9.4c-11.49-.34-26.88-13.05-35-14.79L654.6,392a16.21,16.21,0,0,1-19.68-18.92c3.25-3.74-90.66,20.31-90.27,19.3a16.21,16.21,0,0,1-19.49-19c3.93-4.74-90.52,20.21-90.2,19-12.12,2.79-22.57-8.63-19.19-20.48-10.7,3.8-94.78,18.42-99.42,31,18.09-3,73.34-22.72,91.81-23-10.89,52.18,107.45-12.16,114.49,3.73C519.31,424.4,616,377.73,632.1,380.38Z" transform="translate(-170.08 -125.5)"/><path d="M379.71,924.41C318,958.47,335.25,904,303.59,932c-6.31,4.17-9.81.23-11.58-6.13-.56.21-1.1.44-1.64.68.32,4.34,1,7.07,2.08,8.67a14.38,14.38,0,0,0,3.73,1.94c5.86-.28,15.31-9.67,25-4.55a10.2,10.2,0,0,0,3,5.41h25.28c2.95-.84,5.73-1.7,8.1-2.34,3.05-1.14,6.41.1,8.68,2.34h13c.06-.84.13-1.67.17-2.51a19.93,19.93,0,0,1-6.14,0l6.47-11Z" transform="translate(-170.08 -125.5)"/><path d="M607.14,288.55c7.36,12,19,8.83,29.56,11.49l-6.58-5.26c-8.89-3.32-21-4.56-19.5-13.39-2.36-3.84-36.88,20.48-27.21-1.47-14,4.64-39.53,20.55-46.84-.53-9.85,2.45-66.62,24.49-45.53-.51-4.47,2-38.15,14.29-40.39,18.29,10.07-4.47,22.7-8.18,29.39-7.37-9.74,23.7,49.82.48,53.39-2.13-9.85,26.86,31,.06,42.39-1.37C572.34,306.76,598.79,297,607.14,288.55Z" transform="translate(-170.08 -125.5)"/><path d="M692.89,694.39c9.64-4.52,33.93-15.38,34.43-10.19-.27,30.95,40.71-5.79,58.49,1.06-2,3.75-3.31,6.42-3.45,8.22,1.91-.11,3.83-.19,5.76-.23l-.08-18c-18.36-3.14-35.54,14.3-54.45,11.11,3.43-23.81-28.65-6-41.13-.84,0,0,0,7.71,0,8.93Z" transform="translate(-170.08 -125.5)"/><path d="M774.16,516.33l2.67-.93c-1.44.06-2.87.13-4.3.21Z" transform="translate(-170.08 -125.5)"/><path d="M693.21,779.37c-.2.12-.41.23-.62.33.11,1.3.23,2.6.35,3.91A22,22,0,0,0,693.21,779.37Z" transform="translate(-170.08 -125.5)"/><path d="M720.65,601c17.63-1.87,39.33-17.28,56.82-11.14a23.13,23.13,0,0,0-2.64,6.24,128,128,0,0,1,12.85.06l0-5.61c-7.59.21-6-3.11-1.85-11.24-19.43-3.28-37.93,14.17-57.36,10.89,3-21.94-22.61-8.56-34.91-2.48-.2,1.66-.42,3.32-.68,5C697.83,597.68,724.31,573.82,720.65,601Z" transform="translate(-170.08 -125.5)"/><path d="M728.5,500.79c17.64-1.88,39.34-17.28,56.82-11.14-1.6,3.16-2.59,5.7-2.59,7.54,1.5,0,3-.07,4.51-.09l0-4,.27-9.56c-8.92-9.19-28.36.74-41.12,5.62-14.64-20-37.36-1.89-56.26,1.51C686.56,513,733.14,466.06,728.5,500.79Z" transform="translate(-170.08 -125.5)"/><path d="M745.1,892.6c1.64.09,3.28.2,4.92.36a8,8,0,0,1,0-.85A25.14,25.14,0,0,0,745.1,892.6Z" transform="translate(-170.08 -125.5)"/><path d="M690.64,927.09a20.16,20.16,0,0,0,2.41,4.26c.43-.56.4-2.76.22-5.73C692.42,926.13,691.55,926.61,690.64,927.09Z" transform="translate(-170.08 -125.5)"/><path d="M689.6,682.92c-.08,1.8-.19,3.34-.36,4.54,1.1.54,1.85-2,2.35-6.3Z" transform="translate(-170.08 -125.5)"/><path d="M338.15,491c-7.3,1.3-3.07-5.32-4.64-8.76-12.06-8.1-35.24,15.46-42.4,4.3,0-1-.05-2-.08-3a10.11,10.11,0,0,1-1.83.28c0,2.43.06,4.73.09,6.87,4.29,1.14,8.61,2.05,12.95,2.8,12-6.51,27.83-9.66,28.28,2.93,4.54.25,9.1.44,13.65.62,13.46-4.54,27.9-11.4,40.45-8.42a46.61,46.61,0,0,1,2.63-5.85C375.27,476,347.22,487.54,338.15,491Z" transform="translate(-170.08 -125.5)"/><path d="M461,286.37l-12.11,9.51c3.24-.51,9.15-4.34,16.52-9.93A8.81,8.81,0,0,1,461,286.37Z" transform="translate(-170.08 -125.5)"/><path d="M335.35,686c3-22.11-25.54-8.53-40-1.14-.93.92-1.86,1.83-2.8,2.71s-1.85,1.7-2.79,2.53c.14,2.7.3,4.68.46,5.7l.88,0c10.12-3.23,45.14-26.83,39,.06,3.77,1.63,10.07.47,17.08-1.64.54-.28,1.09-.55,1.62-.84a9,9,0,0,1,4.2-1c13.11-4.48,26.95-10.4,30.85-6.88q.3-5.2.7-10.4C372.91,673.91,350.22,689.54,335.35,686Z" transform="translate(-170.08 -125.5)"/><path d="M728.45,892.14a29,29,0,0,0,4.72.4l2.57-.06c16.81-1.12,33.08-14.08,50.07-11.21-5.13,9.09-4.9,11.47,3.21,11.2l-.08-17.42c-.78-2.13-1.27-3.82-1-4.63-19.43-3.28-37.93,14.17-57.36,10.89,3.92-15.9-16.65-13.49-29.05-5.33a68.57,68.57,0,0,1-3.37,12C711.05,881.85,730.69,872.21,728.45,892.14Z" transform="translate(-170.08 -125.5)"/><path d="M788.57,794l0-7.48c-8,.26-7.46-2.45-2.73-11.22-19.43-3.28-37.93,14.17-57.36,10.89,3.14-22.42-23.66-7.92-35.48-2.25l.09,1q1.85,2.35,3.61,4.75c7.14-2,20.51-12.37,21.79-6.23-5.92,37,70.22-23.8,53.63,12C775.48,794.31,783.53,795.44,788.57,794Z" transform="translate(-170.08 -125.5)"/></g>

<g id="a46074b6-4396-4e85-99a0-ce4fecac5c36" data-name="darkto0">
    
    <animate attributeName="opacity"
             values="1;0;0;1" dur="1s"
             repeatCount="indefinite"/>
    
    
    <path d="M359.94,902.2c-9.3,15.34,8.84,9.79,22.52,4.94,0-3.42-.07-6.85-.06-10.26C375.36,900,367.66,902.7,359.94,902.2Z" transform="translate(-170.08 -125.5)"/><path d="M384.14,867.33c-19.88,2.53-50.71,26.51-50.17-.77-29.26,9-38.77,11.83-41.12,5.81.1,9.74.14,16.81,0,17.7,13.3-6.2,23.84-12.76,39-12.32-.22,27.19,31.41,2.1,51.14.3C383.24,874.46,383.62,870.88,384.14,867.33Z" transform="translate(-170.08 -125.5)"/><path d="M293.73,808.16c-1.68-17.52-1.31,22-1,52.1C293.86,849.45,296.23,832.51,293.73,808.16Z" transform="translate(-170.08 -125.5)"/><path d="M302.09,703.7c-4.43,31.51,44-7.86,50.24.8,8.19,1.32,5.6-3.77,5.19-10-17,1.16-34.7,15.1-49.12,11.26C313.24,681,276.51,700.79,302.09,703.7Z" transform="translate(-170.08 -125.5)"/><path d="M385.37,800a174,174,0,0,1-16.53,5.61c-28.57,5.47-3.13-25-54.66,1.17-15-.32-22.13-35.14-19.82,8,16.09,5.7,67.09-30.24,52.5.05,3.61,0,13.35-1.36,19.1-1.84,6.58-2.21,13.13-5,19.73-6.83C385.57,804.14,385.46,802.08,385.37,800Z" transform="translate(-170.08 -125.5)"/><path d="M293.72,794.12c-3.16-4.61,28.54-18.66,29.26-13.21-5.91,37,70.22-23.79,53.63,12,1.76,0,5-.32,8.46-.7-.21-6.75-.3-13.5-.34-20.26-19.65.37-53.46,28-52.9-.55a72.37,72.37,0,0,0-38.19,12.45l-.05-80.42C291.17,701.88,291.88,796.47,293.72,794.12Z" transform="translate(-170.08 -125.5)"/><path d="M292.85,872.37c0-3.71-.07-7.81-.12-12.11C292.14,865.92,291.89,869.89,292.85,872.37Z" transform="translate(-170.08 -125.5)"/><path d="M355.52,900.36c2.39-21.56-22.07-2-34.08-.75-17.08,12.89-11.8-16-27.85-9.67-1.87,14.24,11.89,5.92,9.63,21.7C322,914.21,336.19,898.16,355.52,900.36Z" transform="translate(-170.08 -125.5)"/><path d="M688.9,485.69c0,.05,0,.09,0,.14l.17.1.06,1.34a10.46,10.46,0,0,0,3.83,1.23C693,488.37,691.35,487.24,688.9,485.69Z" transform="translate(-170.08 -125.5)"/><path d="M359.61,706.93c-9,15.54,12.06,8.09,25.87,3.12.11-2.48.21-5,.31-7.45C377.85,706.1,366.12,706.93,359.61,706.93Z" transform="translate(-170.08 -125.5)"/><path d="M697.63,404.9C707.54,414.09,720,422,734.78,421c41.09-14.46,27.48,5.12,57,8.87l.07-2.45a14.93,14.93,0,0,0-5.6-12.08l-16.89-13.51c-16.16,4.17-53.85,17.32-48.83-13.09-23.1-1.3-118.5,49-112.29,3-16.18-2.76-119,46.12-109.69,0-15.59-2.75-116.71,45-110,1.52,3.51-4.77-83.26,19.72-83.23,18.48l13.85-10.9c-78.47,46.44,62-12.36,61.74,2.66,0,35.66,55.41,1,65.39,5.79-3.6,4.31,50.13-10.56,49.79-9.55-8.65,39.56,53.23,6.85,65,10.65l44.12-10.15c-9.28,36,50.52,11.21,65.07,9.55C666.62,414.26,697.68,403.91,697.63,404.9Z" transform="translate(-170.08 -125.5)"/><path d="M293.76,598.12c4.77-12.23,35.94-20.81,31.41.38,15.3.18,59.68-28.47,54.89-1.52,2-.15,4.13-.13,6.11-.2,0-7-.23-13.94-.91-20.83-19.57-.13-54,28.27-53.43-.56a72.56,72.56,0,0,0-38.2,12.46V508.14C290.58,505.57,291,601.53,293.76,598.12Z" transform="translate(-170.08 -125.5)"/><path d="M785,933.64a69.7,69.7,0,0,0-10.63.11l6.6-11.2c-13.09,5.86-56.7,24.92-51-.42-14-7.58-25.57,16.89-34.07,7.1,0,0,0,4,0,6.7h8.37c4.58-2.95,8.82-6.81,14.2-1.37a8.82,8.82,0,0,0,.79,1.37H743.8c7.64-1.54,15.3-2.78,21.13,0H777A14.8,14.8,0,0,0,785,933.64Z" transform="translate(-170.08 -125.5)"/><path d="M525.46,381.48c-3.34,40.8,93.38-5.88,109.45-3.22-8,43,74.79,4.67,92.48,4.69,10.14,9.94,23.62,16.95,38.74,16.27l-11.75-9.4c-11.5-.35-26.89-13.05-35-14.8l-61.93,14.84a16.23,16.23,0,0,1-19.69-18.93c3.26-3.73-90.65,20.32-90.27,19.31a16.21,16.21,0,0,1-19.48-19c3.93-4.73-90.52,20.22-90.21,19-12.11,2.78-22.56-8.64-19.18-20.49-10.71,3.8-94.79,18.42-99.43,31.05,18.1-3,73.34-22.73,91.81-23.05C400.08,429.93,518.41,365.59,525.46,381.48Z" transform="translate(-170.08 -125.5)"/><path d="M306.56,502.09c-5-3.08-15.45-1.5-12.93,6.05,10.51-3.61,8.83,4.17,9.64,12.15,17.64-1.88,39.34-17.29,56.82-11.15-8.78,17.5,9.44,8.31,23.54,3,0-1.22,0-2.43,0-3.65-4.13.51-8.57.61-11.83,1.25-14.5-14.93-44.54-6.78-60.61,1.08C304,512.16,308.07,505.51,306.56,502.09Z" transform="translate(-170.08 -125.5)"/><path d="M293.23,910.53c.16-3.08.4-6.51.72-10.35A56.88,56.88,0,0,0,293.23,910.53Z" transform="translate(-170.08 -125.5)"/><path d="M382.19,933.42a19.69,19.69,0,0,1-6.15,0l6.48-11v-.13c-61.7,34.07-44.47-20.42-76.12,7.63-10.23,6.76-13.06-7.75-13.17-19.38-.68,13.12.13,19.7,2,22.61a15.37,15.37,0,0,0,3.73,1.94c5.87-.29,15.31-9.67,25-4.56a10.06,10.06,0,0,0,3,5.41h25.28c2.95-.83,5.73-1.69,8.09-2.33,3.05-1.15,6.42.09,8.68,2.33h13C382.08,935.1,382.14,934.26,382.19,933.42Z" transform="translate(-170.08 -125.5)"/><path d="M609.94,286.43c7.36,12,19,8.82,29.56,11.49l-6.57-5.26c-8.9-3.33-21-4.57-19.51-13.39-2.36-3.84-36.87,20.47-27.2-1.47-14,4.63-39.54,20.55-46.85-.53-9.85,2.45-66.61,24.48-45.52-.52-4.47,2-38.16,14.3-40.39,18.29,10.07-4.47,22.69-8.17,29.38-7.36-9.74,23.7,49.83.47,53.4-2.13-9.85,26.86,31,.06,42.39-1.38C575.15,304.64,601.59,294.85,609.94,286.43Z" transform="translate(-170.08 -125.5)"/><path d="M730.12,682.08c-.26,30.94,40.71-5.8,58.49,1-4.56,8.47-5.41,11.47,2.33,11.24l-.09-21.3c-18.37-3.14-35.54,14.31-54.45,11.12,3.43-23.82-28.65-6.05-41.14-.85l0,9.11C704.64,688.06,729.62,676.81,730.12,682.08Z" transform="translate(-170.08 -125.5)"/><path d="M691.12,569.55c.46,7.08,1.6,12.93,3.9,16.64.17-17,0-61.68-1.23-78,9.4-3.23,6.54,6,7.77,12.41,26-3.36,51.39-26.21,58.23-.58,9.73-2.65,20.22-7.57,30.32-9.82l0-6.39c-4.74,2.09-12.55,2.47-16,6.31-19.85-18.87-41.83.86-62.26-.28,0-12.28-16.78-9.42-19.91-11.67,1.66,13.71-.18,33.81-.84,51.76Z" transform="translate(-170.08 -125.5)"/><path d="M695.48,781.91c2.7-.16-6.32-91,4.89-77.89-2,31.35,46-9,56.36.79-.11-25.52-37.78,9.6-50.08,1.32,1.14-19.13-6.33-7.34-11.37-13.68-1.66,5.29-3,14.19-3.81,24.4l.12,50.34C692.41,774.21,693.69,779.57,695.48,781.91Z" transform="translate(-170.08 -125.5)"/><path d="M790.5,596.14l0-7.76c-7.59.2-6-3.11-1.84-11.25-19.44-3.28-37.93,14.17-57.36,10.89,3.16-22.75-24.56-7.52-36.23-1.84-2.79,17.46,32.62-18.45,28.42,12.65,17.63-1.88,39.33-17.28,56.82-11.14C773.25,600.35,780.68,598,790.5,596.14Z" transform="translate(-170.08 -125.5)"/><path d="M749.18,487c-14.64-20-37.36-1.9-56.26,1.51-3.55,22.33,43-24.58,38.39,10.15,17.63-1.87,39.33-17.28,56.82-11.14-3.44,6.77-4.11,10.74,1.93,10.88l0-7.47.27-9.56C781.37,472.19,761.93,482.11,749.18,487Z" transform="translate(-170.08 -125.5)"/><path d="M791.84,893.47c-6.54,3.84-18,5.41-24.61,8.13-10.66-.84-20.11,13.72-.41,10.44,11.53-2.54,20.17-8.53,25.06-8.14Z" transform="translate(-170.08 -125.5)"/><path d="M692,919.71a21.52,21.52,0,0,0,3.89,9.51c1.83-2.35-4.66-34.47,4.52-29.2-.85,29.38,32.14-2.46,48.54,1,7.66,1.06,3.75-5.88,3.9-11-18.91-.22-51.09,28.75-50.31-1.16-4.88,1-6.79-1-10.61,1.26v.32c.76,4.6.4,9.52,0,14.47Z" transform="translate(-170.08 -125.5)"/><path d="M695.72,879s-.14-63.52-.14-63.52c8.34.55,16.52-2.34,24.69-5.39,15.13-8.54,19.29-7.2,29.73-5.84-13.59,23.15,25.14,2.93,41.44.71l0-7.69c-8.78,7.07-30.12,10-39.6,9.71-3.36-34.41-49.78,27.35-56.27-17.62-1.68,4.2-3,12.63-3.83,22.72l.13,53.7C692.67,872.75,693.94,877.7,695.72,879Z" transform="translate(-170.08 -125.5)"/><path d="M695.11,620.59c17.37-2.5,38.38-16.93,55.41-11-3.5,8.08-5.53,12.4,6,9.17,11.14-3.63,23-9.14,34-9.56l0-7.43A117.63,117.63,0,0,1,751.8,611c-4.1-33.26-41.12,22.09-56.73-12.93-7.71-7-.76,70.67-3,87.3C697.25,687.87,694.57,622.08,695.11,620.59Z" transform="translate(-170.08 -125.5)"/><path d="M567.41,240.24l-14.65-11.72c-2.19-1.32-3.86-2.07-4.76-2a11.78,11.78,0,0,1,1.43.56C555.29,231.05,561.35,235.58,567.41,240.24Z" transform="translate(-170.08 -125.5)"/><path d="M341,488.91c-7.3,1.29-3.06-5.33-4.63-8.77-12.06-8.09-35.25,15.46-42.4,4.3-.53-20-1.48-45.34.17-62.68-4,1.09-1.36,76.57-2,80.7,4.77-10.75,45.26-29.48,41-4.12,16.83-1.79,37.35-15.89,54.39-11.84a46,46,0,0,1,2.64-5.85C378.07,473.87,350,485.41,341,488.91Z" transform="translate(-170.08 -125.5)"/><path d="M451.64,293.75C466,291.52,532.77,224,548,226.55c-17.28-3.15-30.79,19-44.73,26.69Z" transform="translate(-170.08 -125.5)"/><path d="M767.26,707c-31,10.24,7,9.63,23.75,2l0-9.76C784.86,703.32,773.23,704.67,767.26,707Z" transform="translate(-170.08 -125.5)"/><path d="M387.41,672.89c-11.69-1.11-34.39,14.53-49.26,11,3.4-24.73-32.73-4.83-44.38,1.14V612.47c5.28,18.49,38.91-12,58.47-3.17-4.51,7.31-2,11.41,6.2,9.12,13.17-6.78,21.85-9.2,27.48-8.54.07-2,.13-4.07.17-6.11-5.75,2.08-11.48,4.41-17.25,5.87-11.21,3.57-17.73,1.58-16.45-11.15-37.7,8-32.88,19.85-58.61-.38a49.35,49.35,0,0,0-.67,10.18c-2.33,9.72-1.12,94.73.46,85.46,9.58-2.72,45.61-27.3,39.4,0,11.6,5,47.1-16.4,53.74-10.41C386.91,679.82,387.14,676.36,387.41,672.89Z" transform="translate(-170.08 -125.5)"/><path d="M791.82,890.35l-.08-17.43c-.77-2.12-1.26-3.81-1-4.63-19.43-3.27-37.92,14.18-57.35,10.9,5.8-23.54-42.08-7-37.65,9,11.76-5,38.07-21.1,35.51,1.81,19.43,3.28,37.92-14.16,57.35-10.88C783.49,888.23,783.72,890.62,791.82,890.35Z" transform="translate(-170.08 -125.5)"/><path d="M791.38,791.83l0-7.48c-8,.27-7.46-2.45-2.73-11.22-19.44-3.28-37.93,14.17-57.36,10.89,3.16-22.59-24.08-7.68-35.76-2.11-4.31,17.2,23.88-9.71,25.77-.67-5.92,37,70.22-23.79,53.62,12C778.29,792.19,786.34,793.31,791.38,791.83Z" transform="translate(-170.08 -125.5)"/>
    </g>

<g id="fb05bec7-40d1-48dd-9423-be5bad461fd7" data-name="WATERto0">
    
        <animate attributeName="opacity"
             values="1;0;0;1" dur="1s"
             repeatCount="indefinite"/>

<g id="af19874f-b2f3-482f-a522-05d6de6c2f5b" data-name="blue">
    <path d="M299.83,522.78c-14.26-55.36-11.45,74.73-11,78.08,10.64-3.57,10.69,2.2,11,11.28,16.38,3.11,31.67-9.42,49.17-11.15-2.48,25.69,28.26,5.07,42,2.56l.4-91.75c-11,1.84-22.61,7.5-33.28,10.4C351.23,496.62,325.84,519.39,299.83,522.78Z" transform="translate(-170.08 -125.5)" fill="#069"/><path d="M299.77,808.14c93.59-25,11.3,19.51,90.33-8.35l.39-90.11c-12.65,4-24.62,10.3-38.22,8.51,4.33-14.46,25.86-8.12,38.26-17l.39-89.79c-11.5-.27-24.13,5.68-35.93,9.54-8.22,2.44-10.68-1.93-6.2-9.12-20.86-10.48-56.44,27.53-60-1.72,6,7.6-14.6,106.53,14.94,85.92-4.35,37.94,51.59-19,51.24,11-10.34-9.84-58.41,30.57-56.36-.78-19.16-17.07-5.81,88.35-9.47,90.59C299.7,793.18,299.39,799.43,299.77,808.14Z" transform="translate(-170.08 -125.5)" fill="#069"/><path d="M792.39,925.75l-.09-20.62c-53.51,20.21-48.28-.15,0-10.32,0,0-.4-87.47-.4-87.47-95.23,29.08-8.13-18.89-75,5.23-8.17,3.06-16.35,5.95-24.69,5.4,1.6,22.13-7.67,104.51,24.14,84.46,10.89-5.35,47.61-15.87,29.2,1.1-24.53,1.33-41.92,22.54-53.13-.9l.09,38.12C705.94,935.49,795,954.47,792.39,925.75Z" transform="translate(-170.08 -125.5)" fill="#069"/><path d="M389.64,905.92c-47.2,18.8-44.48-1,.05-10.19l.38-88.54c-14.23,2.32-32.27,11.25-46.66,10.17,3.11-6.94,7.91-13.39-3.38-11.2-10.32-6.3-53.4,31-50.83-1.9,5.31,4.67-12.36,104.91,11.56,86.74-.76,29.91,31.4,1,50.32,1.16,5.47,18.59-24.95,9.38-36.22,21-19.74,9.28-10.39-15-25.47-10.36.59,12.11-4.44,38.34,15,37.91h85.13Z" transform="translate(-170.08 -125.5)" fill="#069"/><path d="M792.23,432.71c-13.5.8-23.84-8.12-33-15.76-22.87,7.58-48.12,10.06-65.06-9.56-.65-.83-30.49,9.33-27.42,4.86-14.84,1.79-74.15,26.35-65.07-9.55-24.79,6.24-71.37,14.57-96.66,20.71-9.42-1.77-14.62-11.75-12.42-21.21C457.39,412,431.77,410.64,392,423.66c-10.29-.54-16.61-12-14.24-21.47-16.16,0-68.7,18.13-87.12,22.07-5.22,1.18-.5,76.51-2,80.7,24.55-7.33,7.32,7.46,19.14,8.39,11.38-3,44.47-20.91,54.66-2.4,19.42,1.81,28.64,1.54,29.57-13.39-2.27-3.16-2.66-7.71-.42-10.85,0-.32-.07-.63-.1-1a9,9,0,0,1,1.54-.56,8.9,8.9,0,0,1,3.47-1.65c61.41-15.12,125-9,187.58-9a8.41,8.41,0,0,1,6,2.29c6.35.14,12.57.31,18.6.53a280,280,0,0,1,35.61-1.72c8.65.11,17.52.59,26,2.58,5.74,1.35,13,4.05,16.1,9.57a7.64,7.64,0,0,1,3.11,2.92c-3.88,20.75,17.26,3.3,18.91,22,20.49-.47,43.77-18,62.26-.08,5.87-3.78,13.33-6.24,19.87-7.65C789.77,501.66,792.37,438.23,792.23,432.71Z" transform="translate(-170.08 -125.5)" fill="#069"/><path d="M698.06,808.47c16.37,3.12,31.66-9.43,49.16-11.15-2.25,26.65,30.35,3.6,44.6,1.92l-.4-89.91c-13.58,3.54-26.36,11.19-40.87,9.19,5-14.4,27.65-9.29,40.82-18.32,0,0-.39-88.4-.39-88.4-11.52-5.22-55.84,25-43.91.33-75.5-2.6-52.16,31.86-55.22,85.3,15-5.31,7.51,10.86,17.3,13.36,10.21-6.68,61-20.6,38-3.46-6.27-8.66-54.68,30.71-50.25-.81-.13-1.43-2.1-1.63-5.06-1.09C690.34,716.1,692.91,809.64,698.06,808.47Z" transform="translate(-170.08 -125.5)" fill="#069"/><path d="M698.11,523.11c-10.32-53.54-6,68.84-6.5,77.43,14.56,22.59,27.61,5.71,55.62.78-1.32,12.7,5.28,14.74,16.44,11.14,44.71,2.5,22.16-75.68,26.86-100.48C714.88,539.81,795.77,489.53,698.11,523.11Z" transform="translate(-170.08 -125.5)" fill="#069"/><path d="M385.38,394.2c-9.16,46.17,93.33-2.83,109.69,0-9.14,46.17,93.31-2.83,109.69,0-6.15,46,89.11-4.32,112.29-3-3.19,11.86,7.45,23,19.45,20.1l30.13-7.21c-6.72-4.68-110.2-91.31-117.19-87.38-9.27-12.1-21.33,3.9-33.41,2.57-4.51-7.9-9-.44-16.4,2-8.55-.91-17-.88-22.89-10.39-7.68,4.7-16.39,12.94-26,9.51-4.53-1.77-7.63-7.49-5.29-11.76C533.91,309.93,493.29,337,503,310c-3.56,2.6-63.15,25.84-53.4,2.14-20.1-9.56-132.12,93.37-147.79,102.07Z" transform="translate(-170.08 -125.5)" fill="#069"/><path d="M429.37,313.79l31.27-12.59c-21.1,25,35.66,3,45.53.51,10.31,24.46,41.21.27,57.77-4.51-21.07,25,35.64,3,45.53.51,3.1,13.45,22.16,12.31,32.16,6.38C517,195.53,549.32,225.7,429.37,313.79Z" transform="translate(-170.08 -125.5)" fill="#069"/>
    </g>
    </g>

<g id="bf372bdb-06a8-4bc5-88f4-16b04e070756" data-name="WATERdoor"><polygon points="326.18 361.25 326.18 592.51 412.85 461.3 412.85 361.25 326.18 361.25" fill="#069"/><polygon points="420.85 449.19 478.93 361.25 420.85 361.25 420.85 449.19" fill="#069"/><polygon points="326.18 810.25 412.85 810.25 412.85 608.32 326.18 739.53 326.18 810.25" fill="#069"/><path d="M488.26,486.75H416.68a14.09,14.09,0,0,0-14.09,14.09v359l85.67-129.7Z" transform="translate(-170.08 -125.5)" fill="#069"/><polygon points="318.18 810.25 318.18 751.65 279.47 810.25 318.18 810.25" fill="#069"/><path d="M590.92,935.75H663.5a14.09,14.09,0,0,0,14.09-14.09V590.5L590.92,721.71Z" transform="translate(-170.08 -125.5)" fill="#069"/><path d="M660.31,486.75h0a3.2,3.2,0,0,0-2.66,1.43L403.12,873.54a3.22,3.22,0,0,0-.53,1.76v43.17a17.28,17.28,0,0,0,17.28,17.28h18.38a3.2,3.2,0,0,0,2.66-1.43L677.06,576.78a3.14,3.14,0,0,0,.53-1.76V504A17.28,17.28,0,0,0,660.31,486.75ZM449.16,872.83c-11.11,0-11.09-17.24,0-17.24S460.25,872.83,449.16,872.83Zm93.41-142.05c-11.11,0-11.09-17.24,0-17.24S553.66,730.78,542.57,730.78Zm93.41-142c-11.11,0-11.09-17.24,0-17.24S647.07,588.73,636,588.73Z" transform="translate(-170.08 -125.5)" fill="#069"/></g><path id="ede4c613-8e4e-4067-a3a3-d44738d29c11" data-name="DoorStatic" d="M671.56,468.5H403.44A22.44,22.44,0,0,0,381,490.94V936.06c0,.44,10.05.44,22.44.44l7.91-2c-9.58,0-16.35-7.77-16.35-17.35V498.85a17.35,17.35,0,0,1,17.35-17.35h254.3A17.35,17.35,0,0,1,684,498.85v418.3c0,9.58-6.77,17.35-16.35,17.35l3.91,1c12.39,0,22.44-.56,22.44-1V490.94A22.44,22.44,0,0,0,671.56,468.5Z" transform="translate(-170.08 -125.5)" fill="#036"/><path id="fc7a0dbc-fdf6-4989-b3ce-626df3a0bbb7" data-name="Roof" d="M196.13,418.63l15.09,19.73a9.1,9.1,0,0,0,12.67,1.76L534.18,208.61a9.09,9.09,0,0,1,11,.07L851.77,443.21a9.11,9.11,0,0,0,12.51-1.38l19.33-23.08a9.1,9.1,0,0,0-1.4-13L547.15,146.4a9.15,9.15,0,0,0-5.57-1.9h-8.74a9.12,9.12,0,0,0-5.63,1.95L197.73,406A9.1,9.1,0,0,0,196.13,418.63Z" transform="translate(-170.08 -125.5)" fill="#069"/></g>

</svg>