<svg id="b06d3517-68c1-438c-b51d-d10156d8d8ad" data-name="Layer 1" xmlns="http://www.w3.org/2000/svg" viewBox="-24 0 436 337.34">
    
    
    <path d="M559.15,234c-11.68-9.35-28.88-11.75-39.41-22.75-9.42-9.84-12-25.09-22.36-33.91-5.44-4.63-12.53-7-19.62-7.84-7.61-.93-15.61-.23-22.41,3.3-14.29,7.44-19.66,24.69-25.07,39.86s-14.72,31.92-30.68,34.05c-13,1.73-25.28-7.57-32-18.85s-9.23-24.44-13.3-36.9S344,165.87,332.62,159.3c-20-11.62-32.68,3.34-37.74,20.75-6.43,22.1-14.84,43.9-30.18,61.46-16.07,18.4-38.22,30.6-54.65,48.67a110,110,0,0,0-28,64.63c-2,24.7,7.25,53,30,62.74,16.82,7.18,38.36,3.26,51.94,15.5C279.5,447,276.18,475,293,487.4c15.16,11.21,37.19,2.38,51-10.48s24.59-29.75,41.65-37.8c22.29-10.52,48.35-3,72.94-1.14,13.05,1,28.61-1.05,34.88-12.54,7.53-13.76-3.45-30-5-45.66-1.91-19.45,11.36-37.2,26.31-49.78s32.5-22.48,44.58-37.83,17-39.08,4.26-53.88A32.9,32.9,0,0,0,559.15,234Z" transform="translate(-181.77 -155.19)" fill="#7db3c6"/><path d="M416.51,316.9c.31.09.6.23.9.34a7.77,7.77,0,0,1,.8.31l.14.06a7.92,7.92,0,0,1,.61-.56l1.61-1.41,3.3-2.86c1-.91,2.07-1.85,3.15-2.71a13.25,13.25,0,0,1,1.5-1.08,14.23,14.23,0,0,1,1.74-.78,5.67,5.67,0,0,1,2.52-.44l-.38-.73c-.37-.7-.79-1.37-1.2-2.05s-.81-1.31-1.19-2a5.3,5.3,0,0,1-.48-.87c-.18-.33-.35-.68-.51-1a.16.16,0,0,1,.12-.22s0,0,0,0a9.12,9.12,0,0,1,0-1.48c0-.31.48-.5.59-.14a8.49,8.49,0,0,0,1.33,2.48,8,8,0,0,0,1.91,1.95,10.07,10.07,0,0,0,5.34,1.74h.57c.27,0,.53,0,.8,0s.45-.05.67-.09a4.32,4.32,0,0,0,.61-.13,11.72,11.72,0,0,0,2.94-1.27,15.52,15.52,0,0,0,4.68-4.59c2.9-4.23,3.73-9.48,4.5-14.44.42-2.68.84-5.36,1.45-8a65.69,65.69,0,0,1,2.31-7.63,64.81,64.81,0,0,1,7.2-14.09l.52-.74-.06,0L462.58,253c-1.2-.89-2.43-1.74-3.64-2.62s-2.45-1.77-3.65-2.69a10.94,10.94,0,0,1-2.62-2.55,4.52,4.52,0,0,1-.77-3,3.37,3.37,0,0,1,1.36-2.42,3.17,3.17,0,0,1,3.1,0c1.08.5,2,1.37,3.19,1.5a1.46,1.46,0,0,0,1.51-.65,2.86,2.86,0,0,0,.23-1.5,4.86,4.86,0,0,1,.53-3,.32.32,0,0,1,.51,0,19.88,19.88,0,0,0,4.08,5.38A16.86,16.86,0,0,0,472.1,245a.32.32,0,0,1,.17.33c-.35,1.23-.75,2.45-1.12,3.68-.27.89-.55,1.77-.88,2.64a9.78,9.78,0,0,1,1,.52c.35.25.64.58,1,.86.59.53,1.2,1.05,1.82,1.54a33.4,33.4,0,0,0,3.71,2.54,76.85,76.85,0,0,0,8.58,4.25c5.86,2.59,12,5.12,16.7,9.55,5.48,5.13,8.61,12.18,10.86,19.22,2.49,7.81,4,16,7.68,23.39a33.1,33.1,0,0,0,5.61,8.11,29.24,29.24,0,0,0,3.73,3.31,25.91,25.91,0,0,0,4.18,2.49,18.45,18.45,0,0,0,2.28.87c.52.17.24,1-.28.91-.31-.06-.61-.13-.91-.21a.37.37,0,0,1-.52.25,30.81,30.81,0,0,0-4.7-1.9,27.46,27.46,0,0,0-5-.9,40.74,40.74,0,0,0-10.4.58c-7.58,1.24-14.87,4-22.57,4.55a29.65,29.65,0,0,1-11.66-1.21c-3.61-1.19-6.79-3.32-10.29-4.74a21.65,21.65,0,0,0-11.61-1c-4.13.6-8.16,1.79-12.31,2.32a21.55,21.55,0,0,1-11.39-1.14,14.57,14.57,0,0,1-4.19-2.69,9.54,9.54,0,0,1-2.69-3.85,8.75,8.75,0,0,1-1.68.76,12.3,12.3,0,0,1-3.95.61,13.42,13.42,0,0,1-4.07-.69,5.29,5.29,0,0,1-3.14-2.39A.49.49,0,0,1,416.51,316.9Z" transform="translate(-181.77 -155.19)" fill="#232323"/><path d="M449.57,306.44a2.35,2.35,0,0,1,.32-1c5.64-10.81,4.87-23.83,8.68-35.42,1.32-4,3.28-9.35,6.34-12.38.2,2.3-.3,4.84-.23,7.22a48.92,48.92,0,0,0,5.67,21.52c.26.48.53,1.09.23,1.55a1.06,1.06,0,0,1-1.47.12,3,3,0,0,1-.88-1.39L464.32,277c-.37-.93-1-2-2-2-1.19.06-1.57,1.62-1.65,2.81a47.05,47.05,0,0,1-3.77,15.35c-.56,1.29-1.17,2.55-1.79,3.8l-2.32,4.76a28.78,28.78,0,0,1-3,5.25A.76.76,0,0,1,449.57,306.44Z" transform="translate(-181.77 -155.19)" fill="#5b5b5b"/><path d="M471.2,264v-.08c0-2.12.62-1.95,1.21-.12A63.61,63.61,0,0,0,480.83,281a2.93,2.93,0,0,1,.55,1,3.32,3.32,0,0,1-.05,1.33c-1.05,6.42,2.21,12.71,3,19.18a8.63,8.63,0,0,1-.8,5.59,44,44,0,0,0-2.15-14.5c-1.77-5.42-4.56-10.44-6.79-15.69a43.78,43.78,0,0,1-2.9-9.14A24.39,24.39,0,0,1,471.2,264Z" transform="translate(-181.77 -155.19)" fill="#5b5b5b"/><path d="M455.7,314.61l-.22.07a61.28,61.28,0,0,0,6.13-21.43,1,1,0,0,1,.32-.78.89.89,0,0,1,.7,0,4.8,4.8,0,0,1,3.44,3.6,5,5,0,0,1-.89,2.87l-7.42,13.41A4.58,4.58,0,0,1,455.7,314.61Z" transform="translate(-181.77 -155.19)" fill="#5b5b5b"/><path d="M432.1,306.17a4.7,4.7,0,0,1-.5-2.09,19.4,19.4,0,0,0,3.26,2.67,6.48,6.48,0,0,0,4,1c.66-.07,2.23-.75,2.67-.08s-.58,2.07-1,2.53a13.27,13.27,0,0,0-2.1,2.14c-1,1.53-.61,3.54-1.16,5.26a.68.68,0,0,1-.27.42c-.29.16-.63-.15-.77-.46-.57-1.27.07-2.73,0-4.12C436.13,310.65,433.29,308.65,432.1,306.17Z" transform="translate(-181.77 -155.19)" fill="#5b5b5b"/><path d="M457.16,242.47l.3.05c2,.48,2.49.64,3.35,2.43a13,13,0,0,0,2.77,3.83c.22.21.37.66.08.7a.45.45,0,0,1-.16,0,8.63,8.63,0,0,1-2.95-1.63,16.31,16.31,0,0,1-2.1-2.29l-1.67-2c-.18-.22-.36-.5-.25-.76A.61.61,0,0,1,457.16,242.47Z" transform="translate(-181.77 -155.19)" fill="#5b5b5b"/><path d="M463,239.52c1.32,1.34,2.77,3,4,4.52a1.42,1.42,0,0,1,.32.59,2.12,2.12,0,0,1-.06.79c-.17,1.16.3,2.58-.58,3.35-1.39-1.85-4.88-7.11-3.81-9.42Z" transform="translate(-181.77 -155.19)" fill="#5b5b5b"/><path d="M453.59,241.74a1.49,1.49,0,0,1,1.36-1c-.3.43-1.26,2.84-.16,3.07a1.65,1.65,0,0,1-1.26-1.78A1.31,1.31,0,0,1,453.59,241.74Z" transform="translate(-181.77 -155.19)" fill="#5b5b5b"/><path d="M470.26,255.13a2.33,2.33,0,0,1,.08-1.11A79.67,79.67,0,0,0,481,261.78a2.1,2.1,0,0,1,.86.78,2.26,2.26,0,0,1,.07,1.24c-.38,3.45.91,6.88,2.52,10s3.54,6,4.62,9.34c1.28,3.95,1.25,8.19,1.21,12.34l-.1,9.58c-.91-1.42-.66-3.25-.85-4.92-.28-2.38-1.46-4.55-2.07-6.86-1.2-4.57-.09-9.56-1.63-14-.88-2.56-2.57-4.76-3.79-7.18-.1-.19-.18-.45,0-.59s.39.26.17.24-1.61-3.43-1.84-3.83a26.31,26.31,0,0,0-2.67-3.72C475.62,262,473.88,260,472,258A6,6,0,0,1,470.26,255.13Z" transform="translate(-181.77 -155.19)" fill="#5b5b5b"/><path d="M467.09,314.65a1.56,1.56,0,0,1,.31-1.28c.33-.45.8-.78,1.14-1.23a5.83,5.83,0,0,0,.75-1.57,36.8,36.8,0,0,1,3.62-7.6c1.87-2.82,3.82,1.18,4.59,3.16.7,1.81,1.15,3.71,2,5.44a6.87,6.87,0,0,0,4.15,3.81c1.88.48,4.19-.56,4.57-2.46a6.73,6.73,0,0,1-.19,3.16c-.71,1.83-2.9,2.73-4.86,2.54a12.18,12.18,0,0,1-5.35-2.29,18.35,18.35,0,0,0-5.19-2.74,5.33,5.33,0,0,0-5.41,1.34A.74.74,0,0,1,467.09,314.65Z" transform="translate(-181.77 -155.19)" fill="#5b5b5b"/><path d="M423.64,317.94a4.52,4.52,0,0,0,3-.23c1.06-.46,1.9-1.32,2.92-1.83,1.69-.85,5.28.49,3.66,2.79a4.47,4.47,0,0,0,1.16,3.17c.32.27.78.63.59,1s-.84.17-1.16-.15a26.11,26.11,0,0,1-2.19-3,3.88,3.88,0,0,0-3.12-1.76,5.33,5.33,0,0,0-1.83.64,3.8,3.8,0,0,1-1.87.5,1.44,1.44,0,0,1-1.36-1.18Z" transform="translate(-181.77 -155.19)" fill="#5b5b5b"/><path d="M430.38,314.29c.38-.71,1.22-2.06,2-2.23,1-.23,1.32.6,1.8,1.62a.34.34,0,0,1,.05.29.36.36,0,0,1-.23.15,9.64,9.64,0,0,1-3.66.32Z" transform="translate(-181.77 -155.19)" fill="#5b5b5b"/><path d="M427.49,310.76c.55-.07,1.25-1,2-.94a2.43,2.43,0,0,1-2.09.95Z" transform="translate(-181.77 -155.19)" fill="#5b5b5b"/><path d="M432.49,261.65c-.1-.34-.2-.68-.31-1-3.77-12.28-10.69-25.15-22.93-29.07s-25.15,2.42-38,3.08a51.62,51.62,0,0,1-16.36-2,13,13,0,0,0-.84-1.18,30.7,30.7,0,0,0-3.47-3.65c-16.13-14.83-38.4-16.62-59.17-17.77a103.72,103.72,0,0,0-19.21.81c-13.35,1.76-27,5.67-38.31,13.12-9.67,6.35-17.38,15.78-18.48,27.63-1.25,13.53,3.26,26.83,6.65,40,8.27,32.15,10,65.58,11.19,98.75.22,5.89.47,12,3.09,17.26a32.46,32.46,0,0,0,6.64,8.57c26.35,25.92,72,28.91,101.55,6.63,2.4-1.81,4.79-3.89,5.87-6.69,1.31-3.39.49-7.17-.21-10.74a143.91,143.91,0,0,1-.6-52.1l41.51,13.37c5.6,1.81,11.53,3.63,17.27,2.36,8.94-2,14.58-10.71,18.31-19.06A128.52,128.52,0,0,0,432.49,261.65Z" transform="translate(-181.77 -155.19)" fill="#232323"/><path d="M273.28,233.47c1.24-1.33,3.1-2.22,3.66-3.95l-5.85,4.35c2.09-10.79,15.7-14.3,25.07-12.34,1.24.26,2.76,1.59,1.83,2.45a30.91,30.91,0,0,1,7.48,3.77,9.13,9.13,0,0,1,1.44-3.43,22.19,22.19,0,0,0-9.25-8.71c-10.72-5.27-18.58-1.44-25.15,5a101.89,101.89,0,0,0-9.32,11.18c2.11,3.06,5.81,3.41,9.55,2.45A3.57,3.57,0,0,1,273.28,233.47Z" transform="translate(-181.77 -155.19)" fill="#828282"/><path d="M312.15,222c1.5,3.23,3,6.63,3.24,10.12a17.76,17.76,0,0,1,4.79.93,2.21,2.21,0,0,1-1.17,1.53,7.16,7.16,0,0,1,4.78,1.36c.16.11.31.24.46.36a12.94,12.94,0,0,0-6.37,3.85,13,13,0,0,1-2.29,2.34,8.67,8.67,0,0,1-4,1.07l-11.14,1a5.38,5.38,0,0,1-2.62-.19,1.86,1.86,0,0,1-1.19-2.11,2.74,2.74,0,0,1,1.51-1.36l3.73-1.94c-3.66-3.95-6.3-10-11.27-8.9-2,.45-3.55,2.12-5.11,3.51a24.1,24.1,0,0,1-26.35,3.27A4.28,4.28,0,0,1,257,235c-.57-1.32.18-2.82.93-4.05a96.94,96.94,0,0,1,8-11.29c-9.11,1-19.35,3.21-27.69,7.72-.08.14-.15.29-.23.44a7.23,7.23,0,0,1-1.19,2.16c-.5.73-1.06,1.42-1.59,2.12-1.11,1.49-2.23,2.95-3.41,4.38-.7.84-2.1-.27-1.51-1.16,1.2-1.81,2.48-3.54,3.77-5.28-.69.59-1.67,1.49-2.81,2.6-5.52,5.35-14.76,15.39-11.69,17.12,29.94,16.86,66.6,20.66,99.69,11.71a24.64,24.64,0,0,1-6.6-1l3.19-1.8a53.93,53.93,0,0,1-32.75-.3c13-1.17,26.38-2.44,38.12-8.21a78.44,78.44,0,0,1-21.91.16c-4.42-.6-1.1-2.94,1.45-3.13,3.28-.24,6.58-.06,9.87-.39,6.35-.65,12.77-2.31,17.85-6.35,1-.76,1.95-1.93,1.52-3.08a3.16,3.16,0,0,0-1.54-1.43l-7.07-4.06c-1-.56-2.09-1.71-1.4-2.59.47-.61,1.4-.47,2.14-.28l8.21,2.14a8,8,0,0,1-3.9-5.17,23.51,23.51,0,0,1,9.45,4.48,4.2,4.2,0,0,0,1.95,1.08,2.55,2.55,0,0,0,.78,0A64.34,64.34,0,0,0,312.15,222Z" transform="translate(-181.77 -155.19)" fill="#828282"/><path d="M299.39,427.61a84.84,84.84,0,0,1-12.53-1.05,75.12,75.12,0,0,1-12.05-3.12.49.49,0,0,1,.26-.94,88.82,88.82,0,0,0,13.92.86,82.79,82.79,0,0,0,17.48-2.09l1.45-1.07q1.86-1.36,3.8-2.62c.21-.17.43-.34.67-.5.73-.49,1.49-.93,2.21-1.43a48.92,48.92,0,0,0,3.88-3,50.25,50.25,0,0,0,3.8-3.64c.61-.65,1.25-1.26,1.83-1.88a6.28,6.28,0,0,1,1.54-1.44c.39-.44.81-1,1.26-1.43,1.15-2.19,2.19-4.45,3.11-6.72.08-.18.14-.37.21-.55,1.22-4.07,2.44-8.14,3.54-12.25a32,32,0,0,1,.83-4c.22-.71.44-1.44.68-2.16.79-3.43,1.46-6.89,1.92-10.38.73-5.5,1.1-11.06,1.3-16.6.1-2.86,0-5.72,0-8.58a45.2,45.2,0,0,1,.32-4.64c-.76-2.38-.75-5.21-1-7.56-.35-3.14-.8-6.26-1.09-9.41s-.7-6.43-.85-9.65a41.12,41.12,0,0,1,0-4.71c0-.27.06-.54.1-.81a27.75,27.75,0,0,0-6.58-11.51c-3.2-3.14-7-4.13-11.33-3.92a12.33,12.33,0,0,0-5.38,1.71,9.67,9.67,0,0,0-2.37,1.57l-.27.26c-.32.71-.63,1.42-.91,2.14a42.28,42.28,0,0,0-2.4,9.27,27.42,27.42,0,0,0-.25,3.71v0c.13,1.31.07,2.63.07,4l0,1.54c.12,2-3.09,2.43-3.53.48a23.24,23.24,0,0,1-.46-5.49l-.15-.72a30.27,30.27,0,0,0-1.58-5.28,29,29,0,0,0-12.38-14.8,32.49,32.49,0,0,0-9.38-3.55c-1.61-.34-3.24-.51-4.88-.7a19.84,19.84,0,0,1-3.19-.53c-3,.1-6,.23-9,.44-11.08.75-12.22-.18-17.17,12-3.21,7.86-4.37,16.66-4.27,25.1.15,13.84,3.68,27.4,7.51,40.7q8.58,29.78,19.35,58.86c.9,2.41,1.87,4.93,3.79,6.64a14.54,14.54,0,0,0,6.2,2.8,83.46,83.46,0,0,0,29,2.3,15.58,15.58,0,0,0,13.88-8c.21-.3.4-.6.6-.89A68.85,68.85,0,0,1,299.39,427.61Z" transform="translate(-181.77 -155.19)" fill="#828282"/><path d="M326.79,264.66A136.68,136.68,0,0,1,271.66,271a135.28,135.28,0,0,1-30.54-6.32c-3.74.28-7.51-1-11-2.33q-2.68-1-5.27-2.35-1.36-.69-2.7-1.44a3.8,3.8,0,0,1-1.9-1.69,4.17,4.17,0,0,1-.47-.47c-.09.19-.19.38-.27.57l1.42.88c1.65,1,3.29,2,4.86,3.07a1.18,1.18,0,0,1-.26,2.12c.22.07.43.13.64.21.36.12.66.32,1,.44.65.24.39,1.25-.29,1.06-.4-.11-.8-.14-1.19-.25l-1.15-.35c-.7-.21-1.41-.41-2.1-.64a24.33,24.33,0,0,1-3.65-1.54,9.74,9.74,0,0,0,4.46,7.32,3.17,3.17,0,0,1,1.61.26,134.29,134.29,0,0,0,27.69,8.76,141.62,141.62,0,0,0,51.19.85A138.1,138.1,0,0,0,351.33,262l-1.76.26a42.06,42.06,0,0,1-6.42,2.32c-1.27.35-2.59.55-3.87.91s-2.73.83-4.09,1.25c-.08,0-.1-.09,0-.12,1.29-.47,2.59-.92,3.88-1.41s2.45-1.09,3.69-1.59a40.56,40.56,0,0,1,5.43-1.78l-.09-.07a1.69,1.69,0,0,1-.49-1v-.18a2.18,2.18,0,0,1-1,.54c-.35,0-.73.43-1,.64s-.32-.13-.19-.24l.55-.53a1,1,0,0,0,.22-.2.57.57,0,0,0,0-.14,2.42,2.42,0,0,1,.78-1,9.66,9.66,0,0,0,.91-.9,5.29,5.29,0,0,1,.36-.6c.14-.15.3-.28.44-.42a16.11,16.11,0,0,1,2.09-1.78c.38-.24.76-.48,1.13-.73a3.26,3.26,0,0,1,1.13-.57c.37-.07.84.25.67.67a3.25,3.25,0,0,1-.78,1.09l-.93,1c-.22.22-.46.42-.71.63l.6-.18.79-.24a3.66,3.66,0,0,1,.21-.51A2.68,2.68,0,0,1,354,256l.28-4.3A127.53,127.53,0,0,1,326.79,264.66Z" transform="translate(-181.77 -155.19)" fill="#828282"/><path d="M371.29,312a11.21,11.21,0,0,1-1.76,5.85c-2.21,3.19-8.12,3.75-9.47.1-.53-1.42-.2-3-.44-4.51s-1.56-3.1-3-2.65c-1.23.38-1.61,1.9-1.8,3.17L350,347.37a397.3,397.3,0,0,1,7.56-81.27c1.88-9.5,1.49-18,.91-27.2,7.53-1.71,15.71-1.26,23.37-.27a153.12,153.12,0,0,0-10.71,67.93A41.4,41.4,0,0,1,371.29,312Z" transform="translate(-181.77 -155.19)" fill="#828282"/><path d="M393.55,238.39a17,17,0,0,1,2.45-1.86,6,6,0,0,1,.61-.34,11.93,11.93,0,0,0-1.19.24,12.57,12.57,0,0,0-1.23.39.33.33,0,0,1,.06.26,3.93,3.93,0,0,1-.68,1.23A.24.24,0,0,0,393.55,238.39Z" transform="translate(-181.77 -155.19)" fill="#828282"/><path d="M399.92,234.87c-.56,0-1.12,0-1.66,0a.51.51,0,0,1-.08.29.65.65,0,0,1-.18.31c0,.05-.1.08-.14.13l.51-.22A15.07,15.07,0,0,1,399.92,234.87Z" transform="translate(-181.77 -155.19)" fill="#828282"/><path d="M380,309.15a6.3,6.3,0,0,1,.72-4.1c.83-1.15,2.86-1.47,3.58-.26a138.77,138.77,0,0,1,17.39-69.36c-.18.09-.37.16-.54.25a11.43,11.43,0,0,0-1.5,1,.6.6,0,0,1,.26.7,14.11,14.11,0,0,1-.49,1.56c-.2.46-.37.95-.61,1.4s-.57.91-.85,1.36a4.42,4.42,0,0,1-.84,1.06c-.42.61-.83,1.23-1.25,1.85a14.49,14.49,0,0,1-1.38,1.91.49.49,0,0,1-.82-.47,14.46,14.46,0,0,1,1-2.17l1-2a4.47,4.47,0,0,1,.53-1.36l.09-.18c-.46.39-.92.8-1.34,1.23-.76.8-1.51,1.58-2.24,2.39-.85,2-1.68,4-2.57,6-.55,1.25-1.14,2.49-1.78,3.7a19.22,19.22,0,0,1-1,1.67,5.63,5.63,0,0,1-1.43,1.71,1,1,0,0,1-1.53-.88A5.71,5.71,0,0,1,385,254a18.25,18.25,0,0,1,.86-1.78c.64-1.15,1.35-2.26,2.06-3.37s1.32-2,2-3a1,1,0,0,1-.51-1.18,22.52,22.52,0,0,1,1.36-2.89l-.34.34c-.61.61-1.19,1.25-1.78,1.88a16.15,16.15,0,0,1-1.89,1.9,1.44,1.44,0,0,1-1.21.34l-.27.19c-.52.36-1.25-.36-.88-.88l.19-.27a1.37,1.37,0,0,1,0-.35.48.48,0,0,1-.26-.73c.59-.81,1.18-1.63,1.74-2.45a24.5,24.5,0,0,1,1.53-2v0c-17.69,17.35-10.06,75.88-7.49,91.27,1.93,11.55,4.89,24.1,14.25,31.13-.06-.1-.11-.21-.16-.31A133.58,133.58,0,0,1,380,309.15Z" transform="translate(-181.77 -155.19)" fill="#828282"/><path d="M433,306.11a115.13,115.13,0,0,1-1.84,17.74l-5.05-29.46a3.68,3.68,0,0,0-1.23-2.61c-1.94-1.29-3.95,1.65-4.18,4-.31,3,0,6.12-.9,9s-3.36,5.66-6.38,5.48c-4-.25-5.9-5-6.7-8.93a158.9,158.9,0,0,1-2.8-43c.12-1.65-.12-3.84-1.74-4.16s-2.63,1.5-3.15,3a144.72,144.72,0,0,0,.44,96c-9.55-20.9-11.83-44.42-8.84-67.05,1.19-8.94,7.78-56,24.28-46.49,4.11,2.37,6.26,7,8,11.41C429.67,268.53,433.5,287.4,433,306.11Z" transform="translate(-181.77 -155.19)" fill="#828282"/><path d="M438.53,347.85l.27-.11c2.16-.95,3.15-3.66,2.72-6a11.42,11.42,0,0,0-3.66-5.94,8.12,8.12,0,0,1-2.51-3.24c-.4-1.32.38-3.1,1.76-3.11,1,0,1.93.83,2.82.44a1.55,1.55,0,0,0,.59-2,4.14,4.14,0,0,0-1.66-1.63,12.74,12.74,0,0,0-7-2.47c-3.89.07-7.14,3-9.37,6.2-1.66,2.38-3.12,5.12-5.68,6.5-1.94,1-4.23,1.13-6.41,1.4-4,.49-9.07,3.26-8.76,8a3.2,3.2,0,0,0,.71,1.91,1.86,1.86,0,0,0,1.86.62,5.89,5.89,0,0,0,1-.51,6.3,6.3,0,0,1,2.86-.54,60.67,60.67,0,0,1,23.19,4.06,45.68,45.68,0,0,0,6.39,2.24c1,.21,2.29.13,2.56-.82s-.7-1.64-1.48-2.15-1.61-1.46-1.11-2.25A1.82,1.82,0,0,1,438.53,347.85Z" transform="translate(-181.77 -155.19)" fill="#479400"/><path d="M425.18,337.08c-.21-.56-.48-1.1-.73-1.65a6,6,0,0,0-.29-2.79,7.77,7.77,0,0,0-1.48-3h0l-.09.13c-1.67,2.38-3.13,5.12-5.69,6.5-1.94,1-4.22,1.13-6.41,1.4-4,.49-9.06,3.26-8.75,8a3.16,3.16,0,0,0,.7,1.92,1.85,1.85,0,0,0,1.87.61,5.49,5.49,0,0,0,1-.5,6.25,6.25,0,0,1,2.85-.54A59.92,59.92,0,0,1,419,348a5.3,5.3,0,0,1,.22-1.79,8.48,8.48,0,0,1,2.17-3.4,6.23,6.23,0,0,1,1.77-1c.67-.32,1.29-.76,2-1.1a1.26,1.26,0,0,0,.57-1.41C425.45,338.56,425.45,337.79,425.18,337.08Z" transform="translate(-181.77 -155.19)" fill="#365b01"/><path d="M440.85,341.51a1.11,1.11,0,0,0-.08-.77l-.21-.4a3,3,0,0,0-.43-.52l-.67-.73-1.3-1.41c-.42-.46-.84-.93-1.27-1.38l-.69-.71c-.39-.41-.84-.88-1.46-.8a1.37,1.37,0,0,0-.93.38,1.59,1.59,0,0,0-.39.93,1.77,1.77,0,0,0,.74,1.41,1.12,1.12,0,0,0-.05.36,4.08,4.08,0,0,0,.11.7,2.61,2.61,0,0,1,0,.4,3.39,3.39,0,0,0,0,.55v.05a1.29,1.29,0,0,1,0,.19,4.23,4.23,0,0,1-.17.58.49.49,0,0,0,0,.11l0,.1-.06.12a1.74,1.74,0,0,0-.17.45,1.41,1.41,0,0,0-.67.46,23.76,23.76,0,0,0-4.29-1.12c-1.65-.21-3.26-.59-4.91-.82s-3.29-.31-5-.41a19.45,19.45,0,0,0-4.7.06c-.87.15-1.71.38-2.61.47s-1.81.49-2.74.61c0,0,0,0,0,0,.79,0,1.5.29,2.29.36a13.39,13.39,0,0,1,2.67.43,32.17,32.17,0,0,0,4.27.68,58.23,58.23,0,0,1,8.44,1.92c1.38.41,2.74,1,4.1,1.45,1.52.54,2.91,1.31,4.42,1.86a5.36,5.36,0,0,0,4.28,0,4.29,4.29,0,0,0,2.22-3.42A3,3,0,0,0,440.85,341.51Z" transform="translate(-181.77 -155.19)" fill="#366602"/><path d="M439.57,352.18c-.66-1.22-2.24-1.06-3.39-1.37-1.55-.4-3.12-.8-4.67-1.22-3.14-.87-6.26-1.79-9.45-2.49a40.79,40.79,0,0,0-4.54-.7c-1.62-.19-3.22-.64-4.84-.74a19.11,19.11,0,0,0-4.72.13,12.55,12.55,0,0,0-4.3,1.85.23.23,0,0,0,.12.43c1.43,0,2.85.2,4.29.25,1.62.06,3.22.08,4.84.19a20.89,20.89,0,0,1,4.7.72c1.56.46,3.11,1,4.67,1.44a79.65,79.65,0,0,0,9.24,2.35,28.87,28.87,0,0,0,4.54.38c1.18,0,2.77.31,3.51-.89A.3.3,0,0,0,439.57,352.18Z" transform="translate(-181.77 -155.19)" fill="#366602"/><path d="M424.93,334.1h-.19a3.34,3.34,0,0,0-1.51-.08l-1.51.08a.73.73,0,0,0-.71.82.72.72,0,0,0,.9.6l1.49-.27a3.32,3.32,0,0,0,1.42-.43l.2-.06A.33.33,0,0,0,424.93,334.1Z" transform="translate(-181.77 -155.19)" fill="#366602"/><path d="M441.65,329.31a1.3,1.3,0,0,0-1-1.11,2.18,2.18,0,0,0-1,.19c-.46.17-3,1.2-2.48,2a1,1,0,0,0,.63.32,7.88,7.88,0,0,0,2,.16,2.15,2.15,0,0,0,1.73-.73A1.18,1.18,0,0,0,441.65,329.31Z" transform="translate(-181.77 -155.19)" fill="#366602"/><path d="M417.53,349.25l1.26.39a3.11,3.11,0,0,0-1.43-.83,6,6,0,0,1-.24-2.44c-1.51-.2-3-.6-4.52-.69a19.11,19.11,0,0,0-4.72.13,13.38,13.38,0,0,0-4.19,1.78.68.68,0,0,1-.48.1s-.43,0-.32.07c1,1,3.66.53,5.1.58,1.62.06,3.22.08,4.84.19A20.26,20.26,0,0,1,417.53,349.25Z" transform="translate(-181.77 -155.19)" fill="#253f00"/><path d="M413.75,341.21a31.93,31.93,0,0,0,4.27.69c1.08.15,2.17.36,3.26.59.3-.15.62-.27,1-.44.67-.32,1.3-.76,2-1.1a1.23,1.23,0,0,0,.6-1.13l-1-.16c-1.67-.24-3.3-.31-5-.41a19.45,19.45,0,0,0-4.7.05c-.87.16-1.71.38-2.6.48s-1.82.48-2.75.61c0,0,0,0,0,0,.79,0,1.5.29,2.29.36A14.37,14.37,0,0,1,413.75,341.21Z" transform="translate(-181.77 -155.19)" fill="#253f00"/><path d="M421.83,335.53l1.49-.27.28-.05a4.9,4.9,0,0,0-.07-1.21l-.38,0-1.51.09a.72.72,0,1,0,.19,1.42Z" transform="translate(-181.77 -155.19)" fill="#253f00"/><path d="M432.51,372.17l.83.06,1.62.1c1.08.06,2.15.12,3.22.16,2.16.1,4.33.16,6.5.2s4.31.05,6.47,0,4.32-.05,6.48-.12l3.25-.13,1.62-.09,1.08-.08h0a4.64,4.64,0,0,0,4.25-2.41,3.54,3.54,0,0,0,.19-.33l0-.05a13.64,13.64,0,0,0,1.11-5.65,42.43,42.43,0,0,0-.13-6.07A44.11,44.11,0,0,0,466.25,346c-.05-.11-.09-.23-.14-.35a.86.86,0,0,0-.13-.2h0l-.08-.1a.16.16,0,0,0-.14-.07,5.69,5.69,0,0,0-.52-.33,3.9,3.9,0,0,0-.35-.19c-.13-.07-.25-.15-.38-.21a6.83,6.83,0,0,0-1.58-.53,7.67,7.67,0,0,0-3.27,0,3.82,3.82,0,0,0-.74.26c-.79.11-1.57.25-2.35.4l-3.63.7-14.44,2.8-3.63.71c-1.11.21-2.23.41-3.34.67a11.44,11.44,0,0,0-2.91,1,7,7,0,0,0-2.05,1.69c-2.41,2.86-2.67,7-2.08,10.57a13.07,13.07,0,0,0,2.21,5.59,9,9,0,0,0,4.77,3.4l.17,0a.13.13,0,0,0,.09.15,1.7,1.7,0,0,0,.37.1Z" transform="translate(-181.77 -155.19)" fill="#93002e"/><path d="M467.25,367.53c-.51-.73-1.19-1.34-1.76-2a12.22,12.22,0,0,1-1.37-2.1,11.66,11.66,0,0,1-.89-2.37c-.11-.42-.21-.85-.28-1.28s-.17-.83-.22-1.25a21.06,21.06,0,0,1,.3-5.66,52.68,52.68,0,0,1,1.5-5.94c.08-.24.13-.49.2-.73a.22.22,0,0,0-.37-.22,10.58,10.58,0,0,0-2.62,3.46,5.58,5.58,0,0,0-.34,1,.28.28,0,0,0-.22.07,12.67,12.67,0,0,0-3.55,5.11,13.88,13.88,0,0,0-.88,6.15c0,.29.06.57.1.85a.31.31,0,0,0-.05.1,3.28,3.28,0,0,1-.67,1.36,4.23,4.23,0,0,1-1.23,1l0,0-8.57.51-.46-.11a5.11,5.11,0,0,1-1.17-.58,15.42,15.42,0,0,0-2.23-1.44,5,5,0,0,0-1.32-.36,4.64,4.64,0,0,0-1.34.06,5.09,5.09,0,0,0-2.25,1,4.34,4.34,0,0,0-1.41,2l-2.71.14c-.94,0-1.89.12-2.83.1-1.75,0-3.71-.33-4.82-1.84a.28.28,0,0,0-.51.14,4.72,4.72,0,0,0,.28,1.9,3.4,3.4,0,0,0,.43.85,7.29,7.29,0,0,0,.65.72l0,0c.19.31.39.62.61.93a7.82,7.82,0,0,0,1.9,1.95,8.73,8.73,0,0,0,5.3,1.32l.61,0c.41.06.82.1,1.23.14,2.33.23,4.69.28,7,.37s4.77.17,7.15.2a89.7,89.7,0,0,0,14.28-.84,4.06,4.06,0,0,0,2.27-.71,2.2,2.2,0,0,0,.89-1.69A3.41,3.41,0,0,0,467.25,367.53Z" transform="translate(-181.77 -155.19)" fill="#5e0324"/><path d="M469.59,369.3a5.17,5.17,0,0,0,2.46-1.84,10.43,10.43,0,0,0,1.46-3.22,19.22,19.22,0,0,0,.68-6.36,20.25,20.25,0,0,0-1.32-6.3,19.68,19.68,0,0,0-1.42-2.92,9.89,9.89,0,0,0-1.95-2.46,4.41,4.41,0,0,0-2.63-1.13,3.71,3.71,0,0,0-2,.41.17.17,0,0,0-.18.06l-.13.14a1.3,1.3,0,0,0-.22.19,1.79,1.79,0,0,0-.39.49s0,0,0,.06l-.15.2c-.28.4-.53.81-.77,1.23a17.37,17.37,0,0,0-1.17,2.56,14.14,14.14,0,0,0-.45,1.4c-.12.45-.22.9-.31,1.36a18.5,18.5,0,0,0-.3,2.88,18.18,18.18,0,0,0,.71,5.63,16.1,16.1,0,0,0,2.5,5.13,7.5,7.5,0,0,0,2.45,2.24A4.06,4.06,0,0,0,469.59,369.3Z" transform="translate(-181.77 -155.19)" fill="#68696d"/><path d="M468.16,368.78a2.07,2.07,0,0,0,.69-.14,4.07,4.07,0,0,0,.65-.35,8.33,8.33,0,0,0,1.13-.91,9.37,9.37,0,0,0,1.77-2.28,12.06,12.06,0,0,0,1.38-6,25.71,25.71,0,0,0-1.22-6.9c-.56-1.92-1.33-4-3-5.28a5,5,0,0,0-2.49-1,3.75,3.75,0,0,0-.67,0c-.21,0-.42,0-.63.05a3.36,3.36,0,0,0-1.18.43,3.05,3.05,0,0,0-.49.38c-.11.1.05.28.17.19a3.3,3.3,0,0,1,1.08-.53,2.58,2.58,0,0,1,1.17-.09,6.23,6.23,0,0,1,1.14.33l.58.25.26.14a1.7,1.7,0,0,1,.22.15,6.17,6.17,0,0,1,1.78,2.08,1.09,1.09,0,0,0,.08.15l0,.1c.06.11.11.22.16.33s.21.47.3.71c.18.45.34.92.48,1.39s.29,1,.42,1.51.26,1.06.38,1.59a21.74,21.74,0,0,1,.46,3.32q0,.42,0,.84v.38c0,.08,0,.15,0,.22v.1h0v0a12.87,12.87,0,0,1-.19,1.64,10.44,10.44,0,0,1-.32,1.34V363a.88.88,0,0,0,0,.15c0,.11-.08.22-.13.33s-.17.45-.26.66a9.26,9.26,0,0,1-.63,1.21l-.08.13,0,0,0,.05-.2.29c-.13.18-.27.35-.41.52s-.29.34-.45.5a3.64,3.64,0,0,1-.46.42c-.34.29-.73.52-1.09.78-.18.14-.34.29-.5.44S468,368.79,468.16,368.78Z" transform="translate(-181.77 -155.19)" fill="#3e3e3f"/><path d="M466.83,355.7a.17.17,0,0,0,.15-.14.59.59,0,0,0-.05-.32,2.19,2.19,0,0,0-.17-.29,2.28,2.28,0,0,1,.23-.22,1.93,1.93,0,0,1,1.74-.44,3.18,3.18,0,0,1,.94.42c.17.11.37-.08.36-.25a.24.24,0,0,0,0-.08,13.63,13.63,0,0,0-.08-1.81l0-.41c0-.16-.05-.31-.07-.47a5.45,5.45,0,0,0-.2-.89,4.51,4.51,0,0,0-.73-1.53,2.87,2.87,0,0,0-1.4-1,2.36,2.36,0,0,0-2.7,1.26,4.6,4.6,0,0,0-.11,3.46,6.32,6.32,0,0,0,.75,1.6,6.8,6.8,0,0,0,.52.68A1,1,0,0,0,466.83,355.7Z" transform="translate(-181.77 -155.19)" fill="#272728"/><path d="M472.51,362.78c-.08-.1-.13-.22-.2-.32a1.61,1.61,0,0,0-.37-.32c-.25-.18-.49-.35-.72-.54a9.55,9.55,0,0,1-1.32-1.22,12.2,12.2,0,0,1-2-2.94c-.14-.29-.25-.6-.38-.89s-.13-.32-.18-.48a.87.87,0,0,0-.21-.39h0c-.11.25,0,.58.07.84a5,5,0,0,0,.25.86,11.69,11.69,0,0,0,.77,1.69,11,11,0,0,0,2.36,2.85,7.53,7.53,0,0,0,.84.65,2.68,2.68,0,0,0,.47.26,1.91,1.91,0,0,0,.54.08C472.49,362.91,472.56,362.84,472.51,362.78Z" transform="translate(-181.77 -155.19)" fill="#3e3e3f"/><path d="M473,361.55c.17,0,.21-.32.22-.46a2,2,0,0,0-.62-1.52,1.76,1.76,0,0,0-2-.24c-.1.06,0,.19.08.17a2.06,2.06,0,0,1,.89,0,1.87,1.87,0,0,1,.77.42,1.52,1.52,0,0,1,.4.76,1.55,1.55,0,0,1,0,.43.65.65,0,0,0,.07.39.13.13,0,0,0,0,.08.1.1,0,0,0,.09,0Z" transform="translate(-181.77 -155.19)" fill="#3e3e3f"/><path d="M469.27,357.52a.46.46,0,0,0,.2,0,.94.94,0,0,0,.4-.39,1.61,1.61,0,0,0-.06-1.84,1.27,1.27,0,0,0-.38-.35,1,1,0,0,0-.24-.1h-.13l-.06,0s0,0,0,0a.1.1,0,0,0-.06.17s0,.07,0,.09l.07.07.13.14a1.13,1.13,0,0,1,.22.27,1.07,1.07,0,0,1,.19.64,1.16,1.16,0,0,1-.21.58,4.08,4.08,0,0,0-.25.33.59.59,0,0,0-.06.14c0,.05-.05.1-.05.15a.06.06,0,0,0,0,.08.41.41,0,0,0,.19,0Z" transform="translate(-181.77 -155.19)" fill="#3e3e3f"/><path d="M470.44,356.8a.6.6,0,0,0,.11-.37c0-.11,0-.23,0-.34a.72.72,0,0,0-.07-.38s0,0,0,0,0,0,0-.08l-.07-.15-.08-.16a2.26,2.26,0,0,0-.54-.65,2.83,2.83,0,0,0-.69-.45,2,2,0,0,0-.82-.24c-.25,0-.37.39-.12.5s.25.07.37.12a1.51,1.51,0,0,1,.29.13,2.33,2.33,0,0,1,.53.42,2.51,2.51,0,0,1,.19.24,3,3,0,0,1,.2.29,3.07,3.07,0,0,1,.17.31.36.36,0,0,1,.06.11.53.53,0,0,0,.08.15c.1.15.07.44.22.58A.14.14,0,0,0,470.44,356.8Z" transform="translate(-181.77 -155.19)" fill="#e8e8e8"/><path d="M470.73,361a1.92,1.92,0,0,0-.36-.5c-.15-.17-.3-.36-.44-.54-.29-.37-.56-.74-.82-1.12s-.52-.74-.75-1.14-.46-.8-.68-1.21a14.48,14.48,0,0,1-.69-1.43c0-.06-.13,0-.1,0a20.3,20.3,0,0,0,1.21,2.48,20,20,0,0,0,1.54,2.33l.51.63a2,2,0,0,0,.52.52A0,0,0,0,0,470.73,361Z" transform="translate(-181.77 -155.19)" fill="#e8e8e8"/><path d="M472.48,362.73a2,2,0,0,0,.45-.25,2,2,0,0,0,.62-.82.11.11,0,0,0-.2-.1,1.7,1.7,0,0,1-.59.66,1.72,1.72,0,0,1-.38.2.86.86,0,0,0-.4.21.09.09,0,0,0,0,.11A.55.55,0,0,0,472.48,362.73Z" transform="translate(-181.77 -155.19)" fill="#e8e8e8"/><path d="M525.51,359.51h0c.13-.46.3-.91.42-1.37a5.44,5.44,0,0,1,1.69-2.67,132,132,0,0,1,5.18-12.35,46.6,46.6,0,0,0,3.2-7.61c.22-.78,1.66-7.09-.75-6.14a1.33,1.33,0,0,0-.5.38,3.8,3.8,0,0,0-.47.71c-4.95,9.24-8.75,19.25-9.71,29.68C524.89,359.92,525.19,359.71,525.51,359.51Z" transform="translate(-181.77 -155.19)" fill="#c4bcbf"/><path d="M525.51,359.89c2.13-4.49,4.13-9.05,6-13.66,1.9-4.79,4.65-10.43,5.54-15.51h0a.76.76,0,0,1-.18-.09c-1.15,2.54-2.26,5.11-3.34,7.68a7.06,7.06,0,0,1-1.45,5.18,7.26,7.26,0,0,1-.7.77,32.88,32.88,0,0,1-2.5,5.37c-1.14,2.8-2.28,5.6-3.44,8.39-.24.58-.49,1.17-.69,1.78A7.46,7.46,0,0,1,525.51,359.89Z" transform="translate(-181.77 -155.19)" fill="#7a7778"/><path d="M535.22,330.73a3.43,3.43,0,0,0-.74.92A73.64,73.64,0,0,0,524.4,359a2.4,2.4,0,0,0,.44,2.24A102.2,102.2,0,0,1,534.18,336c-.5.43.32,1.26.92,1s.81-1,.95-1.63C536.27,334.39,536.55,329.69,535.22,330.73Z" transform="translate(-181.77 -155.19)" fill="#7a7778"/><path d="M533.21,340.18l-.43.58c-.14.19-.27.39-.4.6-.26.42-.48.9-.71,1.35s.2.65.37.34.52-.87.74-1.33c.1-.24.2-.46.29-.7l.27-.72C533.38,340.18,533.28,340.09,533.21,340.18Z" transform="translate(-181.77 -155.19)" fill="#7a7778"/><path d="M528.22,351.47q-.33.7-.63,1.41a4.17,4.17,0,0,0-.29.75c0,.14-.09.27-.13.41a2.44,2.44,0,0,0-.09.54c0,.25,0,.47.21.55s.34-.06.46-.28a2.91,2.91,0,0,0,.21-.48c0-.15.07-.29.11-.43a4.67,4.67,0,0,0,.17-.81c.08-.52.16-1,.23-1.55C528.5,351.36,528.31,351.27,528.22,351.47Z" transform="translate(-181.77 -155.19)" fill="#7a7778"/><path d="M524.14,361.2a1.43,1.43,0,0,0,.21-.43c2.89-8.51,4.23-17.77,9.33-25.16.75-1.1,3.36-3.79,3.05-5.24-.41-2-4.11-.95-5.49-.75a31.69,31.69,0,0,1-15.86-2.12,56.68,56.68,0,0,1-13.88-8.19,4.55,4.55,0,0,0-1.8-1,1.51,1.51,0,0,0-1.73.81,2.17,2.17,0,0,0-.05.95c.33,4.55-1.39,9-3.87,12.87s-5.72,7.08-8.8,10.44c-.36.4-.72,1-.35,1.4s.65.2,1,.15a20.46,20.46,0,0,1,8.21.82,66.37,66.37,0,0,1,24.06,12,49.13,49.13,0,0,0,4.59,3.41c.41.24,1,.46,1.31.14A.3.3,0,0,0,524.14,361.2Z" transform="translate(-181.77 -155.19)" fill="#93002e"/><path d="M520.68,351a1.51,1.51,0,0,0,.6-.09,3.29,3.29,0,0,0,1.17-.93c3.09-3.34,6-7.16,6.67-11.66a1.66,1.66,0,0,0,0-.77c-.23-.65-1.17-.76-1.77-.42a7.57,7.57,0,0,0-1.49,1.45c-1.93,2-5.15,1.86-7.77,1s-5.1-2.26-7.84-2.53a2.61,2.61,0,0,0-2.1.5c-.81.79-.47,2.16.06,3.16a19.11,19.11,0,0,0,6.15,6.34C515.62,348,518.76,350.89,520.68,351Z" transform="translate(-181.77 -155.19)" fill="#b5416b"/><path d="M524.62,332.55a11.87,11.87,0,0,0,5.69-1c-6.62-2.17-13.3-3.41-19.74-6.29a2,2,0,0,0-1-.26.71.71,0,0,0-.68.62,1,1,0,0,0,.22.51c2.74,3.91,7.74,5.54,12.47,6.12C522.56,332.41,523.58,332.51,524.62,332.55Z" transform="translate(-181.77 -155.19)" fill="#b5416b"/><path d="M495.63,339.06a20.76,20.76,0,0,0,3.1-4.07,14.5,14.5,0,0,0,1.77-5,5.83,5.83,0,0,0,0-2.46c-.13-.54-.13-1.35-.54-1.75h0c-.46.29-.59.94-.92,1.36a9.57,9.57,0,0,0-1.05,1.94,35.06,35.06,0,0,1-2.28,3.94,18.15,18.15,0,0,1-2.77,3.4c-1.29,1.21-3.36,1.86-3.74,3.75a1.83,1.83,0,0,0,1.56,2C492.68,342.62,494.48,340.24,495.63,339.06Z" transform="translate(-181.77 -155.19)" fill="#51021e"/><path d="M507.11,346c.19,0,.43-.17.37-.38a4.18,4.18,0,0,0-.7-1.16c.12.19-.08-.19-.11-.25a1.88,1.88,0,0,0-.33-.36l-.53-.47a6.57,6.57,0,0,0-1.16-.91c-.23-.16-.44-.35-.67-.5a4,4,0,0,0-1.3-.49,12.19,12.19,0,0,0-1.58-.29c-.27,0-.54-.06-.8-.07a1.69,1.69,0,0,0-1.21.36l-.08.08-.05,0a1.2,1.2,0,0,0,0,2.19h0a1.68,1.68,0,0,0,.92.48c.24,0,.49,0,.73.09l.73.13c.12,0,.26.05.38.09l.11,0a5,5,0,0,0,1,.26c.24,0,.48,0,.72,0h.07l.09,0,.39.11a3,3,0,0,0,.63.15l.58.23a1.27,1.27,0,0,0,.55.12C506.32,345.65,506.68,346,507.11,346Z" transform="translate(-181.77 -155.19)" fill="#51021e"/><path d="M522.24,359.63c1.13-.5,1.82-2.57,2.35-3.52.9-1.65-.47-3.18-2-1.78a4.81,4.81,0,0,0-1.15,2.2,9.24,9.24,0,0,0-4-2.49,1.81,1.81,0,0,0-.89-.11.72.72,0,0,0-.59.6,1,1,0,0,0,.26.61,17,17,0,0,0,4.59,4.32A1.39,1.39,0,0,0,522.24,359.63Z" transform="translate(-181.77 -155.19)" fill="#51021e"/><path d="M499.6,323.12a.34.34,0,0,0,.29.06.44.44,0,0,0,.21-.25c.34-.82.45-4.15-1.22-3.75a1.18,1.18,0,0,0-.82,1.07,2.44,2.44,0,0,0,.36,1.38,5.7,5.7,0,0,0,1.06,1.38Z" transform="translate(-181.77 -155.19)" fill="#51021e"/><path d="M462.58,248.68a3,3,0,0,0-.33-.87l-.26-.36-.12-.16s-.1-.11,0,0l-.1-.24-.14-.19a2,2,0,0,0-.2-.21l-.32-.27-.71-.62a11.87,11.87,0,0,0-1.61-1,2.88,2.88,0,0,0-.84-.42,2.33,2.33,0,0,1-.38-.08l-.44-.18c-.23-.1-.42.21-.31.4a2.48,2.48,0,0,1,.35.64,2.73,2.73,0,0,0,.57.83,15.47,15.47,0,0,0,1.13,1.3,8.34,8.34,0,0,0,.65.53,7.57,7.57,0,0,0,.77.63,1.14,1.14,0,0,0,.34.15l.08,0c.13.05.26.13.39.19s.24.13.37.18a1,1,0,0,0,.49.08l.3.06C462.42,249.07,462.65,248.91,462.58,248.68Z" transform="translate(-181.77 -155.19)" fill="#d6d6d6"/></svg>